<svg width="97" height="108" viewBox="0 0 97 108" fill="none" xmlns="http://www.w3.org/2000/svg">
<path d="M2.94729 67.5696C2.36641 69.0438 -0.625661 75.3732 0.147019 77.4336C0.752026 78.9247 1.48545 80.3604 2.33902 81.7245C2.33902 81.7245 1.5773 86.1962 2.88702 87.7525C4.19674 89.3088 7.08468 91.446 7.08468 91.446L9.51781 93.638C9.51781 93.638 9.86305 96.2136 12.0879 97.3315C14.3128 98.4494 18.8283 98.7563 20.0778 99.5509L24.5769 102.362L27.399 102.192C27.399 102.192 28.1827 103.014 33.9257 105.173C37.469 106.454 41.3237 106.596 44.9515 105.579L46.4092 105.617C46.4092 105.617 50.1136 107.864 54.2456 107.809C58.3775 107.754 62.3889 105.02 63.6767 104.845C64.9645 104.669 68.8224 104.253 72.5597 103.749C76.2971 103.244 79.3659 100.461 80.0454 100.132C80.7249 99.803 84.128 99.5071 85.4651 98.5645C86.8022 97.622 90.9177 93.3366 91.926 91.3528C92.9344 89.3691 92.348 89.4074 94.2002 87.6593C96.0525 85.9112 97.2362 78.1186 96.9402 76.924C96.6443 75.7294 2.94729 67.5696 2.94729 67.5696Z" fill="#FFC727"/>
<path opacity="0.3" d="M2.94729 67.5696C2.36641 69.0438 -0.625661 75.3732 0.147019 77.4336C0.752026 78.9247 1.48545 80.3604 2.33902 81.7245C2.33902 81.7245 1.5773 86.1962 2.88702 87.7525C4.19674 89.3088 7.08468 91.446 7.08468 91.446L9.51781 93.638C9.51781 93.638 9.86305 96.2136 12.0879 97.3315C14.3128 98.4494 18.8283 98.7563 20.0778 99.5509L24.5769 102.362L27.399 102.192C27.399 102.192 28.1827 103.014 33.9257 105.173C37.469 106.454 41.3237 106.596 44.9515 105.579L46.4092 105.617C46.4092 105.617 50.1136 107.864 54.2456 107.809C58.3775 107.754 62.3889 105.02 63.6767 104.845C64.9645 104.669 68.8224 104.253 72.5597 103.749C76.2971 103.244 79.3659 100.461 80.0454 100.132C80.7249 99.803 84.128 99.5071 85.4651 98.5645C86.8022 97.622 90.9177 93.3366 91.926 91.3528C92.9344 89.3691 92.348 89.4074 94.2002 87.6593C96.0525 85.9112 97.2362 78.1186 96.9402 76.924C96.6443 75.7294 2.94729 67.5696 2.94729 67.5696Z" fill="black"/>
<path d="M9.52332 88.8156C9.61034 90.4171 9.59203 92.0225 9.46852 93.6216L7.04088 91.4296C7.04088 91.4296 4.13099 89.2923 2.83771 87.7415C1.54443 86.1907 2.28971 81.7135 2.28971 81.7135C4.44883 79.0283 7.87383 82.8095 8.86571 84.3713C9.85759 85.9331 9.34248 86.8921 9.52332 88.8156Z" fill="#FFC727"/>
<path d="M9.47945 87.8675C9.47945 88.1525 9.47945 88.4649 9.51233 88.8046C9.58065 89.9709 9.58065 91.1401 9.51233 92.3064C9.48493 93.0736 9.44108 93.6051 9.44108 93.6051L9.2164 93.4133L7.0244 91.4405C7.0244 91.4405 4.11451 89.3088 2.82123 87.7525C1.52795 86.1962 2.27323 81.7245 2.27323 81.7245C2.41127 81.5457 2.57359 81.3871 2.75548 81.2532C2.93359 81.0993 3.1403 80.982 3.36377 80.9079C5.44069 80.1901 7.99437 83.0616 8.84377 84.3877C9.69317 85.7139 9.49041 86.5469 9.47945 87.8675Z" fill="#FFC727"/>
<path opacity="0.1" d="M9.47945 87.8675C9.47945 88.1525 9.47945 88.4649 9.51233 88.8046C9.58065 89.9709 9.58065 91.1401 9.51233 92.3064C9.48493 93.0736 9.44108 93.6051 9.44108 93.6051L9.2164 93.4133L7.0244 91.4405C7.0244 91.4405 4.11451 89.3088 2.82123 87.7525C1.52795 86.1962 2.27323 81.7245 2.27323 81.7245C2.41127 81.5457 2.57359 81.3871 2.75548 81.2532C2.93359 81.0993 3.1403 80.982 3.36377 80.9079C5.44069 80.1901 7.99437 83.0616 8.84377 84.3877C9.69317 85.7139 9.49041 86.5469 9.47945 87.8675Z" fill="black"/>
<path opacity="0.1" d="M9.47949 87.8785L9.67127 91.7748L9.5288 92.3228C9.5014 93.09 9.45756 93.6216 9.45756 93.6216L9.23288 93.4298L7.04088 91.457C7.04088 91.457 4.13099 89.3252 2.83771 87.7689C1.54443 86.2126 2.28971 81.7409 2.28971 81.7409C2.42775 81.5622 2.59007 81.4035 2.77196 81.2696L3.38024 80.9244C2.94184 81.7409 4.00495 86.3606 4.65159 87.0236C5.29823 87.6867 7.56148 90.0102 8.13688 89.8294C8.71228 89.6486 9.41921 88.01 9.47949 87.8785Z" fill="black"/>
<path d="M3.1336 78.4474C2.80733 79.3975 2.42863 80.3287 1.99924 81.2368C1.27333 80.0253 0.646575 78.7571 0.125085 77.4446C-0.570875 75.565 1.82387 70.1836 2.71711 68.1012C2.68971 68.3533 2.34996 71.3892 3.18292 73.351C4.04328 75.417 3.60488 77.0446 3.1336 78.4474Z" fill="#FFC727"/>
<path d="M3.41853 77.5104C3.33085 77.8337 3.2377 78.146 3.13358 78.4474C2.80669 79.3954 2.42799 80.3248 1.99922 81.2313C1.27112 80.021 0.644276 78.7526 0.125066 77.4391C-0.384574 76.0582 0.771706 72.7866 1.76907 70.3151L1.80194 70.2165C2.15814 69.3671 2.48146 68.6218 2.70614 68.0902C2.67874 68.3368 2.33898 71.3782 3.17194 73.3401C3.74017 74.6583 3.82744 76.1343 3.41853 77.5104Z" fill="#FFC727"/>
<path opacity="0.1" d="M3.41853 77.5104C3.33085 77.8337 3.2377 78.146 3.13358 78.4474C2.80669 79.3954 2.42799 80.3248 1.99922 81.2313C1.27112 80.021 0.644276 78.7526 0.125066 77.4391C-0.384574 76.0582 0.771706 72.7866 1.76907 70.3151L1.80194 70.2165C2.15814 69.3671 2.48146 68.6218 2.70614 68.0902C2.67874 68.3368 2.33898 71.3782 3.17194 73.3401C3.74017 74.6583 3.82744 76.1343 3.41853 77.5104Z" fill="black"/>
<path opacity="0.1" d="M3.41853 77.5104C3.33085 77.8337 3.2377 78.146 3.13358 78.4474C2.80669 79.3954 2.42799 80.3248 1.99922 81.2313C1.27112 80.021 0.644276 78.7526 0.125066 77.4391C-0.384574 76.0582 0.771706 72.7866 1.76907 70.3151C1.39095 71.4385 0.437421 75.5978 1.35258 76.8911C1.55028 77.2412 1.87579 77.5012 2.26091 77.6166C2.64603 77.7321 3.06087 77.694 3.41853 77.5104Z" fill="black"/>
<path d="M19.6065 99.3317C17.9625 98.6796 14.0553 98.3344 12.0222 97.3151C11.3208 96.958 10.727 96.4209 10.3015 95.7588C10.3015 95.5396 10.6303 90.7446 10.6961 89.7308C10.7618 88.717 10.0385 86.7222 11.9565 86.5798C13.8745 86.4373 17.5132 88.8759 18.5325 90.3226C19.5517 91.7693 19.6065 99.3317 19.6065 99.3317Z" fill="#FFC727"/>
<path d="M19.4476 95.2546C19.5956 97.3644 19.6065 99.3317 19.6065 99.3317C19.4164 99.256 19.2226 99.1902 19.0257 99.1344C17.1899 98.5864 13.8471 98.2302 12.0222 97.3096C11.32 96.9563 10.7257 96.4206 10.3015 95.7588C10.3015 95.5396 10.6303 90.7446 10.6961 89.7308C10.6961 89.3526 10.6358 88.832 10.6193 88.3334C10.5919 87.4894 10.7618 86.6893 11.9565 86.5907C13.8745 86.4427 17.5132 88.8868 18.5325 90.339C18.9125 91.0981 19.1379 91.9252 19.1955 92.7721C19.1955 92.7721 19.1955 92.827 19.1955 92.8763C19.3271 93.6161 19.3873 94.4436 19.4476 95.2546Z" fill="#FFC727"/>
<path opacity="0.1" d="M19.4476 95.2546C19.5956 97.3644 19.6065 99.3317 19.6065 99.3317C19.4164 99.256 19.2226 99.1902 19.0257 99.1344C17.1899 98.5864 13.8471 98.2302 12.0222 97.3096C11.32 96.9563 10.7257 96.4206 10.3015 95.7588C10.3015 95.5396 10.6303 90.7446 10.6961 89.7308C10.6961 89.3526 10.6358 88.832 10.6193 88.3334C10.5919 87.4894 10.7618 86.6893 11.9565 86.5907C13.8745 86.4427 17.5132 88.8868 18.5325 90.339C18.9125 91.0981 19.1379 91.9252 19.1955 92.7721C19.1955 92.7721 19.1955 92.827 19.1955 92.8763C19.3271 93.6161 19.3873 94.4436 19.4476 95.2546Z" fill="black"/>
<path opacity="0.1" d="M19.4476 95.2546C19.5956 97.3644 19.6065 99.3317 19.6065 99.3317C19.4164 99.256 19.2226 99.1902 19.0257 99.1344C17.1899 98.5864 13.8471 98.2302 12.0222 97.3096C11.32 96.9563 10.7257 96.4206 10.3015 95.7588C10.3015 95.5396 10.6303 90.7446 10.6961 89.7308C10.6961 89.3526 10.6358 88.832 10.6193 88.3334C10.7015 89.265 11.2221 92.679 11.94 93.7695C12.6615 95.0245 13.8174 95.9719 15.1897 96.4328C16.7734 96.9041 17.99 97.3644 18.401 96.6629C18.812 95.9615 19.1901 92.9201 19.212 92.7612C19.212 92.7612 19.212 92.816 19.212 92.8653C19.3271 93.6161 19.3873 94.4436 19.4476 95.2546Z" fill="black"/>
<path d="M24.5166 102.346L20.6806 99.9345C20.6806 99.9345 20.0011 98.2905 20.4285 97.074C20.856 95.8574 19.7874 93.49 20.856 92.5968C21.9246 91.7036 23.8152 91.3309 24.7742 92.3612C25.7332 93.3914 27.3607 102.176 27.3607 102.176L24.5166 102.346Z" fill="#FFC727"/>
<path d="M27.3388 102.176L24.5166 102.34L20.6806 99.9345C20.6806 99.9345 19.9956 98.2905 20.434 97.0739C20.8724 95.8574 19.7929 93.49 20.8505 92.5968C21.9081 91.7036 23.8207 91.3254 24.7687 92.3666C25.092 92.7119 25.4866 93.9284 25.8647 95.3916C26.1716 96.5808 26.4785 97.9343 26.736 99.118C27.0922 100.822 27.3388 102.176 27.3388 102.176Z" fill="#FFC727"/>
<path opacity="0.1" d="M27.3388 102.176L24.5166 102.34L20.6806 99.9345C20.6806 99.9345 19.9956 98.2905 20.434 97.0739C20.8724 95.8574 19.7929 93.49 20.8505 92.5968C21.9081 91.7036 23.8207 91.3254 24.7687 92.3666C25.092 92.7119 25.4866 93.9284 25.8647 95.3916C26.1716 96.5808 26.4785 97.9343 26.736 99.118C27.0922 100.822 27.3388 102.176 27.3388 102.176Z" fill="black"/>
<path opacity="0.1" d="M27.3388 102.176L24.5166 102.34L20.6806 99.9345C20.6806 99.9345 19.9956 98.2905 20.434 97.074C20.8724 95.8574 19.7929 93.49 20.8505 92.5968C20.7245 93.8846 21.267 97.4082 22.363 98.4988C23.459 99.5893 24.3138 100.499 24.9495 100.362C25.5852 100.225 25.8647 95.5998 25.8702 95.3916C26.177 96.5808 26.4839 97.9343 26.7415 99.118C27.0922 100.822 27.3388 102.176 27.3388 102.176Z" fill="black"/>
<path d="M44.0473 101.6C44.0473 102.274 44.8693 105.562 44.8693 105.562C41.2479 106.573 37.4016 106.429 33.8655 105.151C31.9232 104.462 30.0269 103.649 28.1882 102.718C28.1882 102.718 27.6402 98.1974 27.7115 97.2384C27.7827 96.2794 32.3804 95.1724 33.7395 94.7669C35.0985 94.3614 39.0715 94.4216 41.2854 95.4409C43.4993 96.4602 44.0473 100.937 44.0473 101.6Z" fill="#FFC727"/>
<path opacity="0.1" d="M44.8912 105.557C41.2688 106.563 37.4233 106.417 33.8873 105.141C31.943 104.456 30.0464 103.643 28.2101 102.707C28.2101 102.707 27.6621 98.1919 27.7333 97.2274C27.7333 96.9424 28.1936 96.641 28.8293 96.3451C30.43 95.7152 32.068 95.1845 33.7339 94.7559C35.0765 94.3559 39.066 94.4107 41.2799 95.43C42.1841 95.8519 42.8252 96.8493 43.2527 97.9234V97.9617C43.4072 98.3538 43.5389 98.7545 43.6472 99.1618V99.2386C43.8541 99.9911 43.9881 100.762 44.0473 101.54C44.0911 102.269 44.8912 105.557 44.8912 105.557Z" fill="black"/>
<path opacity="0.1" d="M44.8912 105.557C41.2688 106.563 37.4233 106.417 33.8873 105.141C31.943 104.456 30.0464 103.643 28.2101 102.707C28.2101 102.707 27.6621 98.1919 27.7333 97.2274C27.7333 96.9424 28.1936 96.641 28.8293 96.3451C28.6868 97.0411 29.3061 100.806 31.3282 101.6C33.3503 102.395 36.2602 103.469 38.359 103.584C40.4579 103.699 43.6034 100.987 43.439 100.34C43.3167 99.5403 43.2544 98.7324 43.2527 97.9234V97.9617L43.6472 99.1618V99.2386C43.8541 99.9911 43.9881 100.762 44.0473 101.54C44.0911 102.269 44.8912 105.557 44.8912 105.557Z" fill="black"/>
<path d="M26.051 92.3831C26.6812 93.8134 26.7251 95.7588 27.7498 95.6711C28.7746 95.5834 31.6187 94.8052 32.4352 93.8901C33.2517 92.9749 32.3585 89.7965 32.2105 89.6924C32.0626 89.5883 26.051 92.3831 26.051 92.3831Z" fill="#FFC727"/>
<path opacity="0.1" d="M32.4407 93.9175C31.6242 94.8326 28.7691 95.6218 27.7443 95.693C26.7196 95.7642 26.6812 93.8134 26.051 92.3776C26.4456 93.0133 27.3553 94.6463 28.6157 94.5696C29.8328 94.4136 30.9984 93.9826 32.0242 93.3092C32.5722 92.953 32.6709 91.9282 32.6763 91.4405C32.8243 92.3776 32.8572 93.4462 32.4407 93.9175Z" fill="black"/>
<path d="M42.9185 94.6847C43.8007 95.7807 44.3049 99.8304 45.2255 99.9674C46.1462 100.104 46.7161 98.5316 48.0806 98.3508C49.4451 98.17 52.1851 98.559 51.955 97.1945C51.6538 95.9079 51.2563 94.6458 50.7658 93.4188L42.9185 94.6847Z" fill="#FFC727"/>
<path opacity="0.1" d="M51.9495 97.1945C52.1851 98.559 49.4396 98.1754 48.086 98.3508C46.7325 98.5262 46.1461 100.099 45.2255 99.9619C44.3048 99.8249 43.8719 96.3232 43.0992 94.9477C43.6856 95.7642 45.2912 97.759 45.4666 98.0768C45.642 98.3946 47.1599 97.5288 47.5655 97.463C47.971 97.3973 50.152 97.5781 51.0507 97.3863C51.9494 97.1945 51.4672 95.4245 51.4343 95.293C51.6502 95.914 51.8223 96.5494 51.9495 97.1945Z" fill="black"/>
<path d="M63.6163 104.834C62.334 105.009 58.3117 107.744 54.1853 107.798C50.5685 107.842 47.2859 106.154 46.5133 105.694L46.3489 105.601C46.3489 105.601 45.2528 102.559 45.4446 101.973C45.6364 101.387 47.7188 100.104 48.6998 99.5619C49.6807 99.0194 54.251 99.0796 56.2622 99.118C58.2733 99.1564 60.4818 98.3179 61.2819 98.8221C61.6545 99.0577 61.2325 100.526 61.7038 101.902C62.1521 102.99 62.8008 103.985 63.6163 104.834Z" fill="#FFC727"/>
<path opacity="0.1" d="M63.6163 104.834C62.334 105.009 58.3117 107.744 54.1853 107.798C50.5685 107.842 47.2859 106.154 46.5133 105.694L46.3489 105.601C46.3489 105.601 45.2528 102.559 45.4446 101.973C45.6364 101.387 47.7188 100.104 48.6998 99.5619C49.6807 99.0194 54.251 99.0796 56.2622 99.118C58.2733 99.1564 60.4818 98.3179 61.2819 98.8221C61.6545 99.0577 61.2325 100.526 61.7038 101.902C62.1521 102.99 62.8008 103.985 63.6163 104.834Z" fill="black"/>
<path opacity="0.1" d="M63.6164 104.834C62.3341 105.004 58.3118 107.744 54.1799 107.798C50.5685 107.842 47.286 106.154 46.5079 105.694L46.3435 105.601C46.3435 105.601 45.2475 102.559 45.4393 101.968C45.5598 101.579 46.5353 100.872 47.4395 100.324C46.7161 100.833 46.8531 102.137 47.0833 102.455C47.9018 103.382 48.8799 104.154 49.9712 104.735C51.3905 105.475 52.6729 105.546 54.9032 105.398C56.4653 105.3 57.9882 104.868 59.3694 104.132C59.8103 103.937 60.1949 103.633 60.4879 103.25C60.7809 102.867 60.9729 102.417 61.0463 101.94C61.2333 101.166 61.3688 100.381 61.4518 99.5893C61.398 100.363 61.4814 101.141 61.6984 101.885C62.1448 102.981 62.7957 103.982 63.6164 104.834Z" fill="black"/>
<path d="M73.7763 103.469C73.3569 103.585 72.9304 103.672 72.4995 103.732C69.3047 104.171 66.0167 104.538 64.3288 104.746C64.3288 104.746 62.5423 102.006 62.6465 100.954C62.7506 99.9016 62.1259 98.9646 63.0136 97.885C63.9014 96.8054 66.6523 95.841 68.3676 97.0246C70.0828 98.2083 71.2391 99.6496 72.083 100.285C72.9269 100.921 73.7763 103.469 73.7763 103.469Z" fill="#FFC727"/>
<path opacity="0.1" d="M73.7763 103.469C73.3569 103.585 72.9304 103.672 72.4995 103.732C69.3047 104.171 66.0167 104.538 64.3288 104.746C64.3288 104.746 62.5423 102.006 62.6465 100.954C62.7506 99.9016 62.1259 98.9646 63.0136 97.885C63.9014 96.8054 66.6523 95.841 68.3676 97.0246C70.0828 98.2083 71.2391 99.6496 72.083 100.285C72.9269 100.921 73.7763 103.469 73.7763 103.469Z" fill="black"/>
<path opacity="0.1" d="M73.7763 103.464C73.3576 103.584 72.9309 103.673 72.4995 103.732C69.3046 104.171 66.0166 104.538 64.3288 104.74C64.3288 104.74 62.5423 102 62.6464 100.948C62.7396 100.022 62.2683 99.1892 62.7615 98.2631C62.8327 98.696 63.2547 101.168 64.3288 101.896C65.4029 102.625 67.4414 102.992 68.4442 103.025C69.4471 103.058 71.1842 102.505 71.6007 101.979C72.0172 101.452 70.702 100.126 70.4061 99.4523C70.1422 98.9 69.8305 98.3719 69.4745 97.874C70.6088 98.833 71.4363 99.792 72.083 100.28C72.9214 100.915 73.7763 103.464 73.7763 103.464Z" fill="black"/>
<path d="M79.9906 100.115C79.4426 100.373 77.4644 102.127 74.8394 103.124H74.8121C74.8121 103.124 73.4914 100.209 73.0694 99.8359C72.6474 99.4632 70.8116 98.4001 70.7678 97.4411C70.724 96.4821 73.1023 95.2491 74.5326 95.4245C75.9628 95.5998 79.9906 100.115 79.9906 100.115Z" fill="#FFC727"/>
<path opacity="0.1" d="M79.9906 100.115C79.4426 100.373 77.4644 102.127 74.8394 103.124H74.8121C74.8121 103.124 73.4914 100.209 73.0694 99.8359C72.6474 99.4632 70.8116 98.4001 70.7678 97.4411C70.724 96.4821 73.1023 95.2491 74.5326 95.4245C75.9628 95.5998 79.9906 100.115 79.9906 100.115Z" fill="black"/>
<path opacity="0.1" d="M79.9852 100.115C79.4372 100.373 77.4644 102.127 74.8395 103.118H74.8121C74.8121 103.118 73.4914 100.198 73.0694 99.8304C72.6475 99.4632 70.8117 98.3892 70.7678 97.4356C70.9158 97.9014 73.4585 99.255 73.9024 99.6276C74.3463 100 75.1299 101.14 76.1601 101.058C77.1904 100.976 78.1932 100.335 78.2206 99.6605C78.248 98.9865 77.1246 97.3041 76.9986 97.1014C78.5001 98.433 79.9852 100.115 79.9852 100.115Z" fill="black"/>
<path d="M87.3393 96.7835C86.7296 97.4191 86.0739 98.0089 85.3775 98.5481C84.3692 99.2605 82.1607 99.6057 80.862 99.8742C80.862 99.8742 78.9166 97.1014 78.1932 96.5041C77.4698 95.9067 76.8999 94.8162 77.289 93.8956C77.6781 92.9749 80.029 92.131 80.7578 92.0872C81.4867 92.0433 82.9937 93.2708 84.0458 93.7312C85.098 94.1915 87.3393 96.7835 87.3393 96.7835Z" fill="#FFC727"/>
<path opacity="0.1" d="M87.3393 96.7835C86.7296 97.4191 86.0739 98.0089 85.3775 98.5481C84.3692 99.2605 82.1607 99.6057 80.862 99.8742C80.862 99.8742 78.9166 97.1014 78.1932 96.5041C77.4698 95.9067 76.8999 94.8162 77.289 93.8956C77.6781 92.9749 80.029 92.131 80.7578 92.0872C81.4867 92.0433 82.9937 93.2708 84.0458 93.7312C85.098 94.1915 87.3393 96.7835 87.3393 96.7835Z" fill="black"/>
<path opacity="0.1" d="M87.3393 96.7835C86.7313 97.4192 86.0754 98.0073 85.3774 98.5426C84.3691 99.2605 82.1606 99.6057 80.8619 99.8688C80.8619 99.8688 78.9165 97.1014 78.1931 96.504C77.6615 96.0747 77.3033 95.4673 77.1848 94.7943C77.3985 95.3423 80.292 96.9863 81.3386 97.3808C82.3853 97.7754 82.9333 98.0275 83.9691 97.6713C84.3754 97.5512 84.7236 97.2864 84.9478 96.9269C85.172 96.5673 85.2566 96.1381 85.1856 95.7204C85.0049 95.1277 84.7567 94.5577 84.4458 94.0216C85.4794 94.867 86.4467 95.7904 87.3393 96.7835Z" fill="black"/>
<path d="M92.8192 89.1827C92.5288 89.7307 92.474 90.1856 91.8931 91.3364C91.3122 92.4872 89.5915 94.5093 88.0571 96.1259C87.2539 95.4375 86.5867 94.6048 86.0898 93.6709C85.3281 92.1419 84.5609 91.0021 85.1911 89.7143C85.8213 88.4265 88.2873 87.1935 89.3175 87.325C90.3478 87.4566 92.5343 89.0074 92.8192 89.1827Z" fill="#FFC727"/>
<path opacity="0.1" d="M92.8192 89.1827C92.5288 89.7307 92.474 90.1856 91.8931 91.3364C91.3122 92.4872 89.5915 94.5093 88.0571 96.1259C87.2539 95.4375 86.5867 94.6048 86.0898 93.6709C85.3281 92.1419 84.5609 91.0021 85.1911 89.7143C85.8213 88.4265 88.2873 87.1935 89.3175 87.325C90.3478 87.4566 92.5343 89.0074 92.8192 89.1827Z" fill="black"/>
<path opacity="0.1" d="M92.8193 89.1773C92.5288 89.7253 92.474 90.1801 91.8931 91.3309C91.3123 92.4817 89.5915 94.5038 88.0571 96.1259C87.2541 95.4352 86.5869 94.6008 86.0898 93.6654C85.5692 92.6242 85.0432 91.7584 84.9664 90.898C85.1637 91.7364 87.1255 93.4846 88.0133 93.4298C88.9011 93.375 89.46 92.0926 90.3807 91.5227C91.1337 90.9797 91.6558 90.1741 91.8438 89.265C91.8931 88.8759 91.1479 88.169 91.0602 88.0703C91.8712 88.5526 92.6494 89.0841 92.8193 89.1773Z" fill="black"/>
<path d="M94.1455 87.6429C93.7948 87.9717 93.5372 88.2347 93.3345 88.4649C93.3345 88.4649 92.4248 88.2018 91.5041 86.7168C90.5835 85.2317 90.852 85.1221 91.1808 82.9849C91.5096 80.8477 88.8409 79.1489 91 78.1899C93.1591 77.2309 96.8745 76.913 96.8745 76.913C97.1705 78.1022 95.9978 85.8948 94.1455 87.6429Z" fill="#FFC727"/>
<path opacity="0.1" d="M94.1455 87.6429C93.7948 87.9717 93.5372 88.2347 93.3345 88.4649C93.3345 88.4649 92.4248 88.2018 91.5041 86.7168C90.5835 85.2317 90.852 85.1221 91.1808 82.9849C91.5096 80.8477 88.8409 79.1489 91 78.1899C93.1591 77.2309 96.8745 76.913 96.8745 76.913C97.1705 78.1022 95.9978 85.8948 94.1455 87.6429Z" fill="black"/>
<path opacity="0.1" d="M94.1454 87.6429C93.8609 87.9025 93.5902 88.1769 93.3344 88.4649C93.3344 88.4649 92.4247 88.2018 91.5041 86.7168C90.5834 85.2317 90.852 85.1166 91.1808 82.9849C91.1913 82.8646 91.1913 82.7435 91.1808 82.6232C91.2849 83.4178 92.1672 86.2893 93.0714 86.2126C93.9756 86.1359 93.3837 84.3439 94.3701 83.0835C95.3565 81.8231 96.3758 79.3352 96.2936 78.431C96.2114 77.5268 94.7099 77.1925 94.7099 77.1925C95.9045 76.9952 96.8306 76.913 96.8306 76.913C97.1704 78.1022 95.9977 85.8948 94.1454 87.6429Z" fill="black"/>
<path d="M2.94727 67.5696C2.94727 68.9232 2.94727 77.0829 4.69539 78.1351C6.44351 79.1872 9.8137 85.3303 11.8961 87.5168C13.9785 89.7034 21.108 91.4898 22.5328 91.5994C23.9576 91.709 31.0049 96.5753 32.3584 97.1671C34.0975 97.8832 35.9266 98.3571 37.7946 98.5755C39.5865 98.7618 45.2364 98.5207 46.6722 98.7234C48.1079 98.9262 53.3797 99.7701 54.4373 99.7098C55.495 99.6496 64.4 98.7344 65.6494 98.1754C66.8989 97.6165 71.7158 97.2438 73.4639 96.9479C75.212 96.652 80.8509 94.9696 83.4485 93.5668C86.046 92.1639 90.9013 86.8757 92.2165 85.6427C93.5317 84.4097 97.4115 80.1627 96.8909 76.9076C96.3703 73.6524 93.6029 71.718 93.2412 70.2932C92.8795 68.8684 90.3752 63.1692 86.7913 60.0072C83.2073 56.8453 74.4503 52.6586 71.4473 51.7872C68.4442 50.9159 63.589 51.0968 61.523 50.4501C59.457 49.8035 55.621 47.8197 51.8289 47.7594C48.0367 47.6992 41.8114 48.0608 41.2196 48.0006C40.6277 47.9403 32.9119 47.6279 32.2379 48.0499C31.5638 48.4718 25.9304 50.2419 23.4699 50.6858C21.0094 51.1296 17.5515 51.9023 15.9897 52.9545C14.4279 54.0066 12.0002 53.6669 9.7589 56.4069C7.51758 59.1469 2.94727 65.4544 2.94727 67.5696Z" fill="#FFC727"/>
<path opacity="0.2" d="M2.94727 67.5696C2.94727 68.9232 2.94727 77.0829 4.69539 78.1351C6.44351 79.1872 9.8137 85.3303 11.8961 87.5168C13.9785 89.7034 21.108 91.4898 22.5328 91.5994C23.9576 91.709 31.0049 96.5753 32.3584 97.1671C34.0975 97.8832 35.9266 98.3571 37.7946 98.5755C39.5865 98.7618 45.2364 98.5207 46.6722 98.7234C48.1079 98.9262 53.3797 99.7701 54.4373 99.7098C55.495 99.6496 64.4 98.7344 65.6494 98.1754C66.8989 97.6165 71.7158 97.2438 73.4639 96.9479C75.212 96.652 80.8509 94.9696 83.4485 93.5668C86.046 92.1639 90.9013 86.8757 92.2165 85.6427C93.5317 84.4097 97.4115 80.1627 96.8909 76.9076C96.3703 73.6524 93.6029 71.718 93.2412 70.2932C92.8795 68.8684 90.3752 63.1692 86.7913 60.0072C83.2073 56.8453 74.4503 52.6586 71.4473 51.7872C68.4442 50.9159 63.589 51.0968 61.523 50.4501C59.457 49.8035 55.621 47.8197 51.8289 47.7594C48.0367 47.6992 41.8114 48.0608 41.2196 48.0006C40.6277 47.9403 32.9119 47.6279 32.2379 48.0499C31.5638 48.4718 25.9304 50.2419 23.4699 50.6858C21.0094 51.1296 17.5515 51.9023 15.9897 52.9545C14.4279 54.0066 12.0002 53.6669 9.7589 56.4069C7.51758 59.1469 2.94727 65.4544 2.94727 67.5696Z" fill="white"/>
<path opacity="0.3" d="M61.4189 69.7342C60.9421 66.8682 55.5224 67.5422 52.7002 67.3998C49.878 67.2573 47.9217 65.4215 44.9625 65.5037C42.0033 65.5859 40.7374 66.0517 39.0331 68.5067C39.0331 68.5067 38.1344 68.6163 37.0603 70.0082C35.9862 71.4002 37.7782 71.433 39.7345 73.3291C41.6909 75.2252 42.6444 75.2745 43.998 75.3129C45.3515 75.3512 50.6726 75.7184 53.4838 75.6472C56.2951 75.5759 57.0787 75.543 59.0406 73.2195C60.575 71.4111 61.8957 72.6058 61.4189 69.7342ZM61.4189 69.7342C60.9421 66.8682 55.5224 67.5422 52.7002 67.3998C49.878 67.2573 47.9217 65.4215 44.9625 65.5037C42.0033 65.5859 40.7374 66.0517 39.0331 68.5067C39.0331 68.5067 38.1344 68.6163 37.0603 70.0082C35.9862 71.4002 37.7782 71.433 39.7345 73.3291C41.6909 75.2252 42.6444 75.2745 43.998 75.3129C45.3515 75.3512 50.6726 75.7184 53.4838 75.6472C56.2951 75.5759 57.0787 75.543 59.0406 73.2195C60.575 71.4111 61.8957 72.6058 61.4189 69.7342ZM61.4189 69.7342C60.9421 66.8682 55.5224 67.5422 52.7002 67.3998C49.878 67.2573 47.9217 65.4215 44.9625 65.5037C42.0033 65.5859 40.7374 66.0517 39.0331 68.5067C39.0331 68.5067 38.1344 68.6163 37.0603 70.0082C35.9862 71.4002 37.7782 71.433 39.7345 73.3291C41.6909 75.2252 42.6444 75.2745 43.998 75.3129C45.3515 75.3512 50.6726 75.7184 53.4838 75.6472C56.2951 75.5759 57.0787 75.543 59.0406 73.2195C60.575 71.4111 61.8957 72.6058 61.4189 69.7342ZM61.4189 69.7342C60.9421 66.8682 55.5224 67.5422 52.7002 67.3998C49.878 67.2573 47.9217 65.4215 44.9625 65.5037C42.0033 65.5859 40.7374 66.0517 39.0331 68.5067C39.0331 68.5067 38.1344 68.6163 37.0603 70.0082C35.9862 71.4002 37.7782 71.433 39.7345 73.3291C41.6909 75.2252 42.6444 75.2745 43.998 75.3129C45.3515 75.3512 50.6726 75.7184 53.4838 75.6472C56.2951 75.5759 57.0787 75.543 59.0406 73.2195C60.575 71.4111 61.8957 72.6058 61.4189 69.7342ZM61.4189 69.7342C60.9421 66.8682 55.5224 67.5422 52.7002 67.3998C49.878 67.2573 47.9217 65.4215 44.9625 65.5037C42.0033 65.5859 40.7374 66.0517 39.0331 68.5067C39.0331 68.5067 38.1344 68.6163 37.0603 70.0082C35.9862 71.4002 37.7782 71.433 39.7345 73.3291C41.6909 75.2252 42.6444 75.2745 43.998 75.3129C45.3515 75.3512 50.6726 75.7184 53.4838 75.6472C56.2951 75.5759 57.0787 75.543 59.0406 73.2195C60.575 71.4111 61.8957 72.6058 61.4189 69.7342ZM61.4189 69.7342C60.9421 66.8682 55.5224 67.5422 52.7002 67.3998C49.878 67.2573 47.9217 65.4215 44.9625 65.5037C42.0033 65.5859 40.7374 66.0517 39.0331 68.5067C39.0331 68.5067 38.1344 68.6163 37.0603 70.0082C35.9862 71.4002 37.7782 71.433 39.7345 73.3291C41.6909 75.2252 42.6444 75.2745 43.998 75.3129C45.3515 75.3512 50.6726 75.7184 53.4838 75.6472C56.2951 75.5759 57.0787 75.543 59.0406 73.2195C60.575 71.4111 61.8957 72.6058 61.4189 69.7342ZM61.4189 69.7342C60.9421 66.8682 55.5224 67.5422 52.7002 67.3998C49.878 67.2573 47.9217 65.4215 44.9625 65.5037C42.0033 65.5859 40.7374 66.0517 39.0331 68.5067C39.0331 68.5067 38.1344 68.6163 37.0603 70.0082C35.9862 71.4002 37.7782 71.433 39.7345 73.3291C41.6909 75.2252 42.6444 75.2745 43.998 75.3129C45.3515 75.3512 50.6726 75.7184 53.4838 75.6472C56.2951 75.5759 57.0787 75.543 59.0406 73.2195C60.575 71.4111 61.8957 72.6058 61.4189 69.7342ZM61.4189 69.7342C60.9421 66.8682 55.5224 67.5422 52.7002 67.3998C49.878 67.2573 47.9217 65.4215 44.9625 65.5037C42.0033 65.5859 40.7374 66.0517 39.0331 68.5067C39.0331 68.5067 38.1344 68.6163 37.0603 70.0082C35.9862 71.4002 37.7782 71.433 39.7345 73.3291C41.6909 75.2252 42.6444 75.2745 43.998 75.3129C45.3515 75.3512 50.6726 75.7184 53.4838 75.6472C56.2951 75.5759 57.0787 75.543 59.0406 73.2195C60.575 71.4111 61.8957 72.6058 61.4189 69.7342ZM61.4189 69.7342C60.9421 66.8682 55.5224 67.5422 52.7002 67.3998C49.878 67.2573 47.9217 65.4215 44.9625 65.5037C42.0033 65.5859 40.7374 66.0517 39.0331 68.5067C39.0331 68.5067 38.1344 68.6163 37.0603 70.0082C35.9862 71.4002 37.7782 71.433 39.7345 73.3291C41.6909 75.2252 42.6444 75.2745 43.998 75.3129C45.3515 75.3512 50.6726 75.7184 53.4838 75.6472C56.2951 75.5759 57.0787 75.543 59.0406 73.2195C60.575 71.4111 61.8957 72.6058 61.4189 69.7342ZM61.4189 69.7342C60.9421 66.8682 55.5224 67.5422 52.7002 67.3998C49.878 67.2573 47.9217 65.4215 44.9625 65.5037C42.0033 65.5859 40.7374 66.0517 39.0331 68.5067C39.0331 68.5067 38.1344 68.6163 37.0603 70.0082C35.9862 71.4002 37.7782 71.433 39.7345 73.3291C41.6909 75.2252 42.6444 75.2745 43.998 75.3129C45.3515 75.3512 50.6726 75.7184 53.4838 75.6472C56.2951 75.5759 57.0787 75.543 59.0406 73.2195C60.575 71.4111 61.8957 72.6058 61.4189 69.7342ZM61.4189 69.7342C60.9421 66.8682 55.5224 67.5422 52.7002 67.3998C49.878 67.2573 47.9217 65.4215 44.9625 65.5037C42.0033 65.5859 40.7374 66.0517 39.0331 68.5067C39.0331 68.5067 38.1344 68.6163 37.0603 70.0082C35.9862 71.4002 37.7782 71.433 39.7345 73.3291C41.6909 75.2252 42.6444 75.2745 43.998 75.3129C45.3515 75.3512 50.6726 75.7184 53.4838 75.6472C56.2951 75.5759 57.0787 75.543 59.0406 73.2195C60.575 71.4111 61.8957 72.6058 61.4189 69.7342ZM61.4189 69.7342C60.9421 66.8682 55.5224 67.5422 52.7002 67.3998C49.878 67.2573 47.9217 65.4215 44.9625 65.5037C42.0033 65.5859 40.7374 66.0517 39.0331 68.5067C39.0331 68.5067 38.1344 68.6163 37.0603 70.0082C35.9862 71.4002 37.7782 71.433 39.7345 73.3291C41.6909 75.2252 42.6444 75.2745 43.998 75.3129C45.3515 75.3512 50.6726 75.7184 53.4838 75.6472C56.2951 75.5759 57.0787 75.543 59.0406 73.2195C60.575 71.4111 61.8957 72.6058 61.4189 69.7342ZM94.003 76.1349C93.5098 73.0935 90.9123 71.2577 90.567 69.9206C90.0163 68.272 89.281 66.6911 88.375 65.2078L74.675 66.0133C79.073 65.1315 83.5444 64.6673 88.0298 64.6269C87.0707 63.0129 85.8839 61.5456 84.5061 60.2703C82.2812 58.3139 77.9301 55.9356 74.4284 54.3026L65.3152 59.3825C67.809 57.1366 70.6544 55.315 73.7379 53.9902C72.5414 53.4324 71.3116 52.9493 70.0554 52.5435C67.2058 51.716 62.6683 51.8968 60.7394 51.2886L52.3714 61.7444C54.0226 57.4835 56.9439 53.8333 60.7394 51.2886C58.7994 50.6803 55.1881 48.8171 51.6261 48.7568C48.0641 48.6965 42.217 49.0418 41.6525 48.9815C41.0881 48.9212 33.8435 48.6308 33.2133 49.0308C32.9012 49.1912 32.5768 49.3268 32.2434 49.4363C34.1011 50.8885 40.3154 55.8644 42.1457 59.2236L32.1502 49.4692C29.8049 50.292 27.4088 50.9619 24.9769 51.4749C22.6808 51.8804 19.4147 52.6202 17.9406 53.6066C17.1569 54.1546 16.1486 54.2916 15.0526 54.7026C18.1981 55.6397 25.6126 57.9906 29.9966 60.4128L14.9047 54.7629C13.8101 55.1983 12.8471 55.9101 12.1098 56.8288C10.0055 59.3935 5.72016 65.3448 5.69824 67.3285C5.69824 67.5806 5.69824 68.1012 5.69824 68.7807C7.89024 68.4958 11.792 68.3533 18.2036 69.3287L5.71468 69.2794C5.78592 72.0194 6.10376 76.524 7.35868 77.2583C8.07656 77.6967 9.10133 79.0612 10.1809 80.6285C12.7729 79.8777 18.7297 78.2173 22.6534 77.6912L10.2247 80.6833C11.5892 82.6561 13.0469 84.9358 14.1265 86.0756C16.0828 88.1306 22.7794 89.813 24.1275 89.9116C25.3221 90.0048 30.6542 93.6106 32.7366 94.8436C34.0682 92.8599 37.2083 88.5909 41.11 85.9496L32.9229 94.9477C33.1092 95.0518 33.2517 95.1286 33.3613 95.1779C34.9995 95.8429 36.7188 96.287 38.4741 96.4986C40.151 96.6684 45.4721 96.4438 46.8147 96.6356C48.1573 96.8274 53.1222 97.6165 54.1195 97.5617C55.1169 97.5069 63.4848 96.641 64.6576 96.1204C65.4905 95.7533 67.9949 95.4683 69.9787 95.2272L61.3915 86.7113C61.6216 86.8373 65.3426 88.9033 70.2636 95.1998C70.9596 95.1176 71.5624 95.0409 71.9843 94.9696C73.6283 94.6902 78.9275 93.1119 81.3661 91.7913C83.8047 90.4706 88.375 85.5002 89.5861 84.3439C89.7834 84.1576 90.0519 83.8946 90.3478 83.5712L67.4688 76.0308C67.9291 76.1239 82.2648 79.0612 90.4848 83.3959C91.5439 82.2526 92.4518 80.9781 93.1865 79.6037L79.2234 76.8637C79.7714 76.913 87.8708 77.7241 93.2632 79.4558C93.8354 78.4473 94.093 77.2908 94.003 76.1349ZM73.2283 57.1028L65.622 61.3389C66.4824 60.7525 71.2774 57.6782 73.2283 57.0974V57.1028ZM49.467 52.0229C51.0453 51.9955 45.8776 59.6949 45.8776 59.6949C46.1735 54.9218 47.8833 52.0612 49.467 52.0229ZM37.3178 58.7688L30.8295 54.0943C33.2342 55.2881 35.4262 56.8692 37.3178 58.7742V58.7688ZM27.7498 56.3631C30.6597 54.9163 38.3426 62.5445 38.3426 62.5445C31.7611 60.2922 24.8673 57.8152 27.7498 56.3685V56.3631ZM32.5393 64.194L18.2913 61.9472C18.2913 61.9472 21.5793 60.7909 32.5393 64.194ZM29.7993 70.5014L12.3181 70.5782C12.3181 70.5782 24.3193 69.8055 29.7993 70.5014ZM17.0473 73.7566C19.7873 70.9782 30.276 73.5757 30.276 73.5757C30.276 73.5757 14.3292 76.5349 17.0528 73.7566H17.0473ZM21.782 81.0121C20.2586 80.0476 32.2927 75.9924 32.6489 75.8773C27.7717 80.3161 23.3438 81.9875 21.7875 81.0121H21.782ZM34.3148 88.8266C34.3148 88.8266 38.9783 82.5246 43.5212 80.4586L34.3148 88.8266ZM52.8153 89.7417C49.5273 89.0184 51.0781 79.2256 51.0781 79.2256C53.5496 84.6727 56.1033 90.4706 52.8153 89.7417ZM55.0073 80.5079C55.21 80.7655 58.3446 84.9961 59.342 93.0407L55.0073 80.5079ZM58.8707 75.5759C56.4704 76.3048 53.1167 77.1323 50.4589 76.7761C47.8011 76.4199 46.1407 77.2418 43.9322 76.7212C41.7238 76.2006 41.5813 76.3431 39.9976 75.5266C38.4138 74.7101 37.5535 74.9019 37.3069 73.8497C37.0603 72.7976 35.1149 72.255 35.4656 71.0001C35.8163 69.7452 34.8135 68.9506 36.5068 68.3752C38.4412 67.7121 41.7128 64.1556 44.1788 64.1994C46.6448 64.2433 48.7327 66.1339 51.522 66.1668C54.3113 66.1996 58.4378 66.0791 60.0653 66.5011C61.5019 66.9566 62.7034 67.9557 63.4136 69.2849C63.9616 70.2822 62.5039 71.5481 62.0162 72.3866C61.5285 73.225 61.238 74.8471 58.8433 75.5869L58.8707 75.5759ZM78.3082 84.3439C76.5546 85.703 69.2882 79.9599 69.2882 79.9599C73.5571 80.7326 80.007 82.9684 78.2644 84.3549L78.3082 84.3439ZM69.6608 84.2069L61.3915 78.6392C64.5933 79.6946 67.4404 81.616 69.617 84.1905L69.6608 84.2069ZM65.9125 64.6269C65.9125 64.6269 74.9435 59.5414 78.5768 61.5088C82.21 63.4761 65.9125 64.6269 65.9125 64.6269ZM85.0487 70.2877H69.0196C69.0196 70.2877 74.949 68.852 85.0487 70.3042V70.2877ZM76.1382 75.1156C79.4041 74.7492 82.6966 74.6813 85.9748 74.9128L76.1382 75.1156ZM52.7002 67.3833C49.8725 67.2354 47.9217 65.405 44.9625 65.4872C42.0033 65.5694 40.7374 66.0352 39.0331 68.4903C39.0331 68.4903 38.1344 68.5999 37.0603 69.9918C35.9862 71.3837 37.7782 71.4166 39.7345 73.3127C41.6909 75.2088 42.6444 75.2581 43.998 75.2964C45.3515 75.3348 50.6726 75.702 53.4838 75.6307C56.2951 75.5595 57.0787 75.5266 59.0406 73.2031C60.575 71.3947 61.8957 72.5893 61.4189 69.7178C60.9421 66.8463 55.5224 67.5532 52.7002 67.3998V67.3833ZM61.4189 69.7178C60.9421 66.8518 55.5224 67.5258 52.7002 67.3833C49.878 67.2408 47.9217 65.405 44.9625 65.4872C42.0033 65.5694 40.7374 66.0352 39.0331 68.4903C39.0331 68.4903 38.1344 68.5999 37.0603 69.9918C35.9862 71.3837 37.7782 71.4166 39.7345 73.3127C41.6909 75.2088 42.6444 75.2581 43.998 75.2964C45.3515 75.3348 50.6726 75.702 53.4838 75.6307C56.2951 75.5595 57.0787 75.5266 59.0406 73.2031C60.575 71.4111 61.8957 72.6058 61.4189 69.7342V69.7178ZM61.4189 69.7178C60.9421 66.8518 55.5224 67.5258 52.7002 67.3833C49.878 67.2408 47.9217 65.405 44.9625 65.4872C42.0033 65.5694 40.7374 66.0352 39.0331 68.4903C39.0331 68.4903 38.1344 68.5999 37.0603 69.9918C35.9862 71.3837 37.7782 71.4166 39.7345 73.3127C41.6909 75.2088 42.6444 75.2581 43.998 75.2964C45.3515 75.3348 50.6726 75.702 53.4838 75.6307C56.2951 75.5595 57.0787 75.5266 59.0406 73.2031C60.575 71.4111 61.8957 72.6058 61.4189 69.7342V69.7178ZM61.4189 69.7178C60.9421 66.8518 55.5224 67.5258 52.7002 67.3833C49.878 67.2408 47.9217 65.405 44.9625 65.4872C42.0033 65.5694 40.7374 66.0352 39.0331 68.4903C39.0331 68.4903 38.1344 68.5999 37.0603 69.9918C35.9862 71.3837 37.7782 71.4166 39.7345 73.3127C41.6909 75.2088 42.6444 75.2581 43.998 75.2964C45.3515 75.3348 50.6726 75.702 53.4838 75.6307C56.2951 75.5595 57.0787 75.5266 59.0406 73.2031C60.575 71.4111 61.8957 72.6058 61.4189 69.7342V69.7178ZM61.4189 69.7178C60.9421 66.8518 55.5224 67.5258 52.7002 67.3833C49.878 67.2408 47.9217 65.405 44.9625 65.4872C42.0033 65.5694 40.7374 66.0352 39.0331 68.4903C39.0331 68.4903 38.1344 68.5999 37.0603 69.9918C35.9862 71.3837 37.7782 71.4166 39.7345 73.3127C41.6909 75.2088 42.6444 75.2581 43.998 75.2964C45.3515 75.3348 50.6726 75.702 53.4838 75.6307C56.2951 75.5595 57.0787 75.5266 59.0406 73.2031C60.575 71.4111 61.8957 72.6058 61.4189 69.7342V69.7178ZM61.4189 69.7178C60.9421 66.8518 55.5224 67.5258 52.7002 67.3833C49.878 67.2408 47.9217 65.405 44.9625 65.4872C42.0033 65.5694 40.7374 66.0352 39.0331 68.4903C39.0331 68.4903 38.1344 68.5999 37.0603 69.9918C35.9862 71.3837 37.7782 71.4166 39.7345 73.3127C41.6909 75.2088 42.6444 75.2581 43.998 75.2964C45.3515 75.3348 50.6726 75.702 53.4838 75.6307C56.2951 75.5595 57.0787 75.5266 59.0406 73.2031C60.575 71.4111 61.8957 72.6058 61.4189 69.7342V69.7178ZM61.4189 69.7178C60.9421 66.8518 55.5224 67.5258 52.7002 67.3833C49.878 67.2408 47.9217 65.405 44.9625 65.4872C42.0033 65.5694 40.7374 66.0352 39.0331 68.4903C39.0331 68.4903 38.1344 68.5999 37.0603 69.9918C35.9862 71.3837 37.7782 71.4166 39.7345 73.3127C41.6909 75.2088 42.6444 75.2581 43.998 75.2964C45.3515 75.3348 50.6726 75.702 53.4838 75.6307C56.2951 75.5595 57.0787 75.5266 59.0406 73.2031C60.575 71.4111 61.8957 72.6058 61.4189 69.7342V69.7178ZM61.4189 69.7178C60.9421 66.8518 55.5224 67.5258 52.7002 67.3833C49.878 67.2408 47.9217 65.405 44.9625 65.4872C42.0033 65.5694 40.7374 66.0352 39.0331 68.4903C39.0331 68.4903 38.1344 68.5999 37.0603 69.9918C35.9862 71.3837 37.7782 71.4166 39.7345 73.3127C41.6909 75.2088 42.6444 75.2581 43.998 75.2964C45.3515 75.3348 50.6726 75.702 53.4838 75.6307C56.2951 75.5595 57.0787 75.5266 59.0406 73.2031C60.575 71.4111 61.8957 72.6058 61.4189 69.7342V69.7178ZM61.4189 69.7178C60.9421 66.8518 55.5224 67.5258 52.7002 67.3833C49.878 67.2408 47.9217 65.405 44.9625 65.4872C42.0033 65.5694 40.7374 66.0352 39.0331 68.4903C39.0331 68.4903 38.1344 68.5999 37.0603 69.9918C35.9862 71.3837 37.7782 71.4166 39.7345 73.3127C41.6909 75.2088 42.6444 75.2581 43.998 75.2964C45.3515 75.3348 50.6726 75.702 53.4838 75.6307C56.2951 75.5595 57.0787 75.5266 59.0406 73.2031C60.575 71.4111 61.8957 72.6058 61.4189 69.7342V69.7178ZM61.4189 69.7178C60.9421 66.8518 55.5224 67.5258 52.7002 67.3833C49.878 67.2408 47.9217 65.405 44.9625 65.4872C42.0033 65.5694 40.7374 66.0352 39.0331 68.4903C39.0331 68.4903 38.1344 68.5999 37.0603 69.9918C35.9862 71.3837 37.7782 71.4166 39.7345 73.3127C41.6909 75.2088 42.6444 75.2581 43.998 75.2964C45.3515 75.3348 50.6726 75.702 53.4838 75.6307C56.2951 75.5595 57.0787 75.5266 59.0406 73.2031C60.575 71.4111 61.8957 72.6058 61.4189 69.7342V69.7178ZM61.4189 69.7178C60.9421 66.8518 55.5224 67.5258 52.7002 67.3833C49.878 67.2408 47.9217 65.405 44.9625 65.4872C42.0033 65.5694 40.7374 66.0352 39.0331 68.4903C39.0331 68.4903 38.1344 68.5999 37.0603 69.9918C35.9862 71.3837 37.7782 71.4166 39.7345 73.3127C41.6909 75.2088 42.6444 75.2581 43.998 75.2964C45.3515 75.3348 50.6726 75.702 53.4838 75.6307C56.2951 75.5595 57.0787 75.5266 59.0406 73.2031C60.575 71.4111 61.8957 72.6058 61.4189 69.7342V69.7178Z" fill="white"/>
<path d="M17.6501 2.58231C16.1705 3.15771 9.49042 5.26203 8.49306 7.23483C7.80716 8.68727 7.24795 10.1962 6.82167 11.7449C6.82167 11.7449 3.01855 14.2164 2.75003 16.222C2.48151 18.2277 2.8925 21.8116 2.8925 21.8116L2.95826 25.0668C2.95826 25.0668 1.31426 27.067 1.9883 29.4508C2.66234 31.8346 5.51742 35.3691 5.78594 36.8268C6.05446 38.2845 6.7833 42.0493 6.7833 42.0493L8.82186 44.0056C8.82186 44.0056 8.75062 45.1345 11.0632 50.8173C12.5297 54.2874 15.0432 57.2129 18.2529 59.1852L19.2174 60.2812C19.2174 60.2812 20.0778 64.5228 22.9219 67.5203C25.766 70.5179 30.5062 71.6084 31.5036 72.4523C32.5009 73.2962 35.4327 75.828 38.3481 78.2282C41.2635 80.6285 45.3789 80.9682 46.0859 81.2641C46.7928 81.5601 49.3136 83.8343 50.9137 84.174C52.5139 84.5138 58.4542 84.6289 60.5969 84.0206C62.7396 83.4123 62.3121 83.0068 64.8549 83.1876C67.3976 83.3685 73.9188 78.9297 74.5873 77.8939C75.2559 76.8582 17.6501 2.58231 17.6501 2.58231Z" fill="#FFC727"/>
<path opacity="0.3" d="M17.6501 2.58231C16.1705 3.15771 9.49042 5.26203 8.49306 7.23483C7.80716 8.68727 7.24795 10.1962 6.82167 11.7449C6.82167 11.7449 3.01855 14.2164 2.75003 16.222C2.48151 18.2277 2.8925 21.8116 2.8925 21.8116L2.95826 25.0668C2.95826 25.0668 1.31426 27.067 1.9883 29.4508C2.66234 31.8346 5.51742 35.3691 5.78594 36.8268C6.05446 38.2845 6.7833 42.0493 6.7833 42.0493L8.82186 44.0056C8.82186 44.0056 8.75062 45.1345 11.0632 50.8173C12.5297 54.2874 15.0432 57.2129 18.2529 59.1852L19.2174 60.2812C19.2174 60.2812 20.0778 64.5228 22.9219 67.5203C25.766 70.5179 30.5062 71.6084 31.5036 72.4523C32.5009 73.2962 35.4327 75.828 38.3481 78.2282C41.2635 80.6285 45.3789 80.9682 46.0859 81.2641C46.7928 81.5601 49.3136 83.8343 50.9137 84.174C52.5139 84.5138 58.4542 84.6289 60.5969 84.0206C62.7396 83.4123 62.3121 83.0068 64.8549 83.1876C67.3976 83.3685 73.9188 78.9297 74.5873 77.8939C75.2559 76.8582 17.6501 2.58231 17.6501 2.58231Z" fill="black"/>
<path d="M6.52022 21.8445C5.40241 22.995 4.21073 24.0714 2.95275 25.0667L2.89246 21.8116C2.89246 21.8116 2.48696 18.2277 2.75 16.222C3.01304 14.2164 6.81615 11.7449 6.81615 11.7449C10.2576 11.5038 9.81919 16.5782 9.34243 18.3866C8.86567 20.195 7.8135 20.4142 6.52022 21.8445Z" fill="#FFC727"/>
<path d="M7.19424 21.176C6.96232 21.3839 6.74102 21.6034 6.53117 21.8336C5.72617 22.68 4.87161 23.4778 3.972 24.2228C3.39112 24.7215 2.96917 25.0503 2.96917 25.0503V24.7544L2.91985 21.8007C2.91985 21.8007 2.50884 18.2168 2.77188 16.2111C3.03492 14.2054 6.83805 11.7284 6.83805 11.7284C7.06524 11.7098 7.29391 11.7227 7.51756 11.7668C7.75069 11.7928 7.97619 11.8655 8.18064 11.9805C10.1151 13.0162 9.74245 16.8413 9.34241 18.3647C8.94237 19.8882 8.17516 20.2827 7.19424 21.176Z" fill="#FFC727"/>
<path opacity="0.1" d="M7.19424 21.176C6.96232 21.3839 6.74102 21.6034 6.53117 21.8336C5.72617 22.68 4.87161 23.4778 3.972 24.2228C3.39112 24.7215 2.96917 25.0503 2.96917 25.0503V24.7544L2.91985 21.8007C2.91985 21.8007 2.50884 18.2168 2.77188 16.2111C3.03492 14.2054 6.83805 11.7284 6.83805 11.7284C7.06524 11.7098 7.29391 11.7227 7.51756 11.7668C7.75069 11.7928 7.97619 11.8655 8.18064 11.9805C10.1151 13.0162 9.74245 16.8413 9.34241 18.3647C8.94237 19.8882 8.17516 20.2827 7.19424 21.176Z" fill="black"/>
<path opacity="0.1" d="M7.18335 21.1869L4.44335 23.9708L3.95014 24.2338C3.36926 24.7325 2.9473 25.0613 2.9473 25.0613V24.7654L2.89799 21.8116C2.89799 21.8116 2.48699 18.2277 2.75003 16.2221C3.01307 14.2164 6.81618 11.7394 6.81618 11.7394C7.04337 11.7208 7.27204 11.7337 7.4957 11.7778L8.15879 11.9915C7.26007 12.2217 4.59131 16.1398 4.54199 17.066C4.49267 17.9921 4.32826 21.2308 4.84886 21.5322C5.36946 21.8336 7.04635 21.2308 7.18335 21.1869Z" fill="black"/>
<path d="M9.79732 10.1228C8.87815 10.5258 7.93787 10.8789 6.98059 11.1804C7.38042 9.8258 7.88614 8.50471 8.49308 7.22936C9.39728 5.44288 14.9759 3.54679 17.1076 2.78507C16.9049 2.93851 14.4608 4.74144 13.573 6.6978C12.6853 8.65416 11.1673 9.51452 9.79732 10.1228Z" fill="#FFC727"/>
<path d="M10.6796 9.69536C10.3837 9.8488 10.0878 9.99128 9.79733 10.1228C8.87983 10.5253 7.9414 10.8784 6.98608 11.1804C7.38118 9.82497 7.88516 8.50365 8.49308 7.22936C9.16164 5.91416 12.3291 4.54416 14.8389 3.61256L14.9376 3.56871L17.1296 2.78507C16.9268 2.93851 14.4773 4.73595 13.5895 6.69231C13.0033 8.00467 11.9728 9.06812 10.6796 9.69536Z" fill="#FFC727"/>
<path opacity="0.1" d="M10.6796 9.69536C10.3837 9.8488 10.0878 9.99128 9.79733 10.1228C8.87983 10.5253 7.9414 10.8784 6.98608 11.1804C7.38118 9.82497 7.88516 8.50365 8.49308 7.22936C9.16164 5.91416 12.3291 4.54416 14.8389 3.61256L14.9376 3.56871L17.1296 2.78507C16.9268 2.93851 14.4773 4.73595 13.5895 6.69231C13.0033 8.00467 11.9728 9.06812 10.6796 9.69536Z" fill="black"/>
<path opacity="0.1" d="M10.6796 9.69536C10.3837 9.8488 10.0878 9.99128 9.79733 10.1228C8.87983 10.5253 7.9414 10.8784 6.98608 11.1804C7.38118 9.82497 7.88516 8.50365 8.49308 7.22936C9.16164 5.91416 12.3291 4.54416 14.8389 3.61256C13.7429 4.10028 10.0604 6.22104 9.73157 7.77736C9.61444 8.15765 9.64743 8.56836 9.82375 8.92509C10.0001 9.28181 10.3063 9.55746 10.6796 9.69536Z" fill="black"/>
<path d="M5.65437 36.3939C5.02964 34.7499 2.61296 31.6428 1.98824 29.4562C1.7742 28.6996 1.76475 27.8997 1.96085 27.1382L6.64624 23.3351C7.4518 22.683 8.41081 20.8143 9.81917 22.124C11.2275 23.4337 11.907 27.7629 11.5454 29.5056C11.1837 31.2482 5.65437 36.3939 5.65437 36.3939Z" fill="#FFC727"/>
<path d="M8.54232 33.5114C7.0956 35.0513 5.65436 36.3939 5.65436 36.3939C5.58188 36.207 5.49956 36.0241 5.40776 35.8459C4.55288 34.1307 2.55268 31.429 1.98824 29.4672C1.7742 28.7105 1.76475 27.9106 1.96085 27.1491L6.64076 23.3515C6.94216 23.1104 7.26548 22.6994 7.62168 22.3487C8.219 21.7568 8.92592 21.3294 9.81368 22.1459C11.2275 23.4556 11.9016 27.7903 11.5454 29.5329C11.2415 30.3261 10.7854 31.0521 10.2028 31.6701C10.1846 31.7004 10.1625 31.728 10.137 31.7524C9.66024 32.2949 9.10128 32.9251 8.54232 33.5114Z" fill="#FFC727"/>
<path opacity="0.1" d="M8.54232 33.5114C7.0956 35.0513 5.65436 36.3939 5.65436 36.3939C5.58188 36.207 5.49956 36.0241 5.40776 35.8459C4.55288 34.1307 2.55268 31.429 1.98824 29.4672C1.7742 28.7105 1.76475 27.9106 1.96085 27.1491L6.64076 23.3515C6.94216 23.1104 7.26548 22.6994 7.62168 22.3487C8.219 21.7568 8.92592 21.3294 9.81368 22.1459C11.2275 23.4556 11.9016 27.7903 11.5454 29.5329C11.2415 30.3261 10.7854 31.0521 10.2028 31.6701C10.1846 31.7004 10.1625 31.728 10.137 31.7524C9.66024 32.2949 9.10128 32.9251 8.54232 33.5114Z" fill="black"/>
<path opacity="0.1" d="M8.54232 33.5114C7.0956 35.0513 5.65437 36.3939 5.65437 36.3939C5.58188 36.207 5.49956 36.0241 5.40776 35.8459C4.55288 34.1307 2.55268 31.429 1.98824 29.4672C1.7742 28.7105 1.76475 27.9106 1.96085 27.1491L6.64076 23.3515C6.94216 23.1104 7.26548 22.6994 7.62168 22.3487C6.99148 23.0392 4.83785 25.7408 4.52549 27.0067C4.09727 28.3883 4.18688 29.8785 4.77756 31.1989C5.5064 32.6785 5.99961 33.8896 6.78873 33.7142C7.57785 33.5388 10.0767 31.7524 10.2028 31.6592C10.1846 31.6894 10.1625 31.717 10.137 31.7414C9.66024 32.2949 9.10128 32.9251 8.54232 33.5114Z" fill="black"/>
<path d="M6.78335 42.0493L5.92847 37.5776C5.92847 37.5776 6.67374 35.9336 7.85742 35.4514C9.0411 34.9691 10.0494 32.547 11.4359 32.7114C12.8223 32.8758 14.3731 34.0266 14.2635 35.4514C14.1539 36.8762 8.82191 44.0166 8.82191 44.0166L6.78335 42.0493Z" fill="#FFC727"/>
<path d="M8.82179 44.0001L6.78323 42.0438L5.93384 37.5776C5.93384 37.5776 6.67911 35.9336 7.86279 35.4514C9.04647 34.9691 10.0548 32.5524 11.4357 32.7114C12.8167 32.8703 14.384 34.0266 14.2689 35.4514C14.2306 35.9172 13.6058 37.0406 12.7948 38.3174C12.1317 39.3531 11.3426 40.5094 10.6521 41.4903C9.64379 42.9042 8.82179 44.0001 8.82179 44.0001Z" fill="#FFC727"/>
<path opacity="0.1" d="M8.82179 44.0001L6.78323 42.0438L5.93384 37.5776C5.93384 37.5776 6.67911 35.9336 7.86279 35.4514C9.04647 34.9691 10.0548 32.5524 11.4357 32.7114C12.8167 32.8703 14.384 34.0266 14.2689 35.4514C14.2306 35.9172 13.6058 37.0406 12.7948 38.3174C12.1317 39.3531 11.3426 40.5094 10.6521 41.4903C9.64379 42.9042 8.82179 44.0001 8.82179 44.0001Z" fill="black"/>
<path opacity="0.1" d="M8.82179 44.0001L6.78323 42.0438L5.93384 37.5776C5.93384 37.5776 6.67911 35.9336 7.86279 35.4514C9.04647 34.9691 10.0548 32.5524 11.4357 32.7114C10.4055 33.4895 8.18611 36.2788 8.14775 37.8242C8.10939 39.3696 7.99979 40.6135 8.53135 40.9916C9.06291 41.3698 12.6468 38.427 12.8112 38.2955C12.1482 39.3312 11.359 40.4875 10.6685 41.4684C9.64379 42.9042 8.82179 44.0001 8.82179 44.0001Z" fill="black"/>
<path d="M20.6039 55.8972C20.1271 56.3685 18.253 59.1852 18.253 59.1852C15.0511 57.2132 12.5437 54.292 11.0797 50.8282C10.2514 48.9328 9.54842 46.9851 8.97534 44.9975C8.97534 44.9975 11.9126 41.5177 12.6579 40.9423C13.4032 40.3669 17.3433 42.9644 18.5544 43.6823C19.7655 44.4002 22.4233 47.3594 23.1795 49.6774C23.9357 51.9955 21.0807 55.4314 20.6039 55.8972Z" fill="#FFC727"/>
<path d="M18.253 59.1852C15.0532 57.2123 12.5478 54.2912 11.0851 50.8282C10.2552 48.9329 9.55045 46.9851 8.97534 44.9975C8.97534 44.9975 11.9126 41.5177 12.6579 40.9423C12.8826 40.767 13.4032 40.882 14.0498 41.156C15.6035 41.8995 17.1081 42.7415 18.5544 43.6768C19.76 44.3892 22.4233 47.3539 23.1795 49.672C23.4864 50.62 23.1795 51.7653 22.6918 52.812V52.8504C22.5089 53.2274 22.3039 53.5934 22.078 53.9464L22.0287 54.0121C21.6208 54.6771 21.1471 55.2995 20.6149 55.8698C20.1271 56.363 18.253 59.1852 18.253 59.1852Z" fill="#FFC727"/>
<path opacity="0.1" d="M18.253 59.1852C15.0532 57.2123 12.5478 54.2912 11.0851 50.8282C10.2552 48.9329 9.55045 46.9851 8.97534 44.9975C8.97534 44.9975 11.9126 41.5177 12.6579 40.9423C12.8826 40.767 13.4032 40.882 14.0498 41.156C15.6035 41.8995 17.1081 42.7415 18.5544 43.6768C19.76 44.3892 22.4233 47.3539 23.1795 49.672C23.4864 50.62 23.1795 51.7653 22.6918 52.812V52.8504C22.5089 53.2274 22.3039 53.5934 22.078 53.9464L22.0287 54.0121C21.6208 54.6771 21.1471 55.2995 20.6149 55.8698C20.1271 56.363 18.253 59.1852 18.253 59.1852Z" fill="black"/>
<path opacity="0.1" d="M18.253 59.1852C15.0532 57.2123 12.5478 54.2912 11.0851 50.8282C10.2552 48.9329 9.55045 46.9851 8.97534 44.9975C8.97534 44.9975 11.9126 41.5177 12.6579 40.9423C12.8826 40.767 13.4032 40.882 14.0498 41.156C13.447 41.5232 11.1071 44.5372 11.8907 46.5538C12.6743 48.5705 13.8854 51.4584 15.2116 53.0641C16.5377 54.6697 20.6916 55.152 21.0478 54.593C21.5495 53.9582 22.0991 53.3628 22.6918 52.812V52.8504L22.078 53.9464L22.0287 54.0121C21.6208 54.6771 21.1471 55.2995 20.6149 55.8698C20.1271 56.363 18.253 59.1852 18.253 59.1852Z" fill="black"/>
<path d="M15.1349 36.4049C14.5101 37.8406 13.1128 39.1942 13.858 39.8956C14.6033 40.5971 17.1186 42.1534 18.3462 42.1315C19.5737 42.1096 21.2944 39.2928 21.278 39.1175C21.2615 38.9421 15.1349 36.4049 15.1349 36.4049Z" fill="#FFC727"/>
<path opacity="0.1" d="M18.3462 42.1589C17.1186 42.1589 14.6033 40.6245 13.858 39.9176C13.1128 39.2106 14.5101 37.8626 15.1349 36.4268C14.9376 37.1502 14.3567 38.9202 15.2664 39.797C16.2076 40.5863 17.3175 41.1488 18.5105 41.441C19.1517 41.6109 19.9627 40.9807 20.3244 40.6519C19.7381 41.3752 18.9764 42.126 18.3462 42.1589Z" fill="black"/>
<path d="M24.8947 50.3789C24.6864 51.7763 22.0615 54.8889 22.5876 55.6561C23.1137 56.4233 24.659 55.7767 25.7112 56.659C26.7634 57.5412 28.3471 59.81 29.191 58.714C29.9321 57.6206 30.588 56.4719 31.1528 55.278L24.8947 50.3789Z" fill="#FFC727"/>
<path opacity="0.1" d="M29.191 58.6866C28.3471 59.7826 26.7633 57.5084 25.7166 56.6316C24.67 55.7548 23.1136 56.4014 22.5876 55.6287C22.0615 54.856 24.3412 52.1599 24.8234 50.6638C24.6261 51.6502 24.248 54.171 24.1384 54.5272C24.0288 54.8834 25.6893 55.3986 26.0181 55.6506C26.3469 55.9027 27.6621 57.6234 28.4347 58.155C29.2074 58.6866 30.1609 57.1302 30.2322 57.0151C29.9258 57.5966 29.5778 58.1552 29.191 58.6866Z" fill="black"/>
<path d="M31.509 72.4359C30.5062 71.6139 25.766 70.5234 22.9219 67.5039C20.434 64.879 19.464 61.306 19.2558 60.4456C19.2284 60.3305 19.2174 60.2648 19.2174 60.2648C19.2174 60.2648 20.708 57.3988 21.2615 57.1302C21.8149 56.8617 24.1823 57.5303 25.2454 57.8865C26.3085 58.2427 29.3718 61.6348 30.7254 63.1308C32.079 64.6269 34.1723 65.69 34.3477 66.6161C34.4299 67.0545 33.0654 67.7395 32.3749 69.0218C31.8727 70.0947 31.5789 71.2533 31.509 72.4359Z" fill="#FFC727"/>
<path opacity="0.1" d="M31.509 72.4359C30.5062 71.6139 25.766 70.5234 22.9219 67.5039C20.434 64.879 19.464 61.306 19.2558 60.4456C19.2284 60.3305 19.2174 60.2648 19.2174 60.2648C19.2174 60.2648 20.708 57.3988 21.2615 57.1302C21.8149 56.8617 24.1823 57.5303 25.2454 57.8865C26.3085 58.2427 29.3718 61.6348 30.7254 63.1308C32.079 64.6269 34.1723 65.69 34.3477 66.6161C34.4299 67.0545 33.0654 67.7395 32.3749 69.0218C31.8727 70.0947 31.5789 71.2533 31.509 72.4359Z" fill="black"/>
<path opacity="0.1" d="M31.509 72.4359C30.5062 71.6139 25.7715 70.5179 22.9219 67.5039C20.434 64.879 19.464 61.306 19.2612 60.4456C19.2431 60.3844 19.2285 60.3222 19.2174 60.2593C19.2174 60.2593 20.708 57.3988 21.2669 57.1302C21.6341 56.9549 22.7958 57.185 23.8425 57.47C22.9767 57.2892 22.1108 58.2701 22.0396 58.6591C21.915 59.8884 22.0115 61.13 22.3246 62.3253C22.752 63.8706 23.563 64.857 25.1906 66.3969C26.3249 67.4744 27.6755 68.2983 29.1526 68.8136C29.5934 69.0044 30.0748 69.0823 30.5532 69.0402C31.0316 68.9981 31.492 68.8373 31.8926 68.5725C32.5877 68.1828 33.2559 67.747 33.8928 67.2682C33.2892 67.7557 32.7739 68.3433 32.3694 69.0054C31.8641 70.0827 31.572 71.2476 31.509 72.4359Z" fill="black"/>
<path d="M39.4057 78.9681C39.0342 78.7409 38.679 78.4883 38.3426 78.2118C35.8546 76.1623 33.3503 73.9977 32.0515 72.9017C32.0515 72.9017 32.8406 69.7342 33.6955 69.0657C34.5504 68.3971 34.7915 67.334 36.1944 67.2518C37.5973 67.1696 40.1674 68.5341 40.4633 70.6001C40.7592 72.666 40.4633 74.4909 40.5948 75.5321C40.7264 76.5733 39.4057 78.9681 39.4057 78.9681Z" fill="#FFC727"/>
<path opacity="0.1" d="M39.4057 78.9681C39.0342 78.7409 38.679 78.4883 38.3426 78.2118C35.8546 76.1623 33.3503 73.9977 32.0515 72.9017C32.0515 72.9017 32.8406 69.7342 33.6955 69.0657C34.5504 68.3971 34.7915 67.334 36.1944 67.2518C37.5973 67.1696 40.1674 68.5341 40.4633 70.6001C40.7592 72.666 40.4633 74.4909 40.5948 75.5321C40.7264 76.5733 39.4057 78.9681 39.4057 78.9681Z" fill="black"/>
<path opacity="0.1" d="M39.4057 78.968C39.0376 78.7359 38.6826 78.4834 38.3426 78.2118C35.8546 76.1623 33.3503 73.9977 32.057 72.8962C32.057 72.8962 32.8406 69.7342 33.701 69.0876C34.4463 68.5396 34.7367 67.608 35.756 67.345C35.482 67.6957 33.9531 69.6849 34.1504 70.9672C34.3477 72.2496 35.4436 74.0086 36.1177 74.7539C36.7917 75.4992 38.3754 76.3979 39.0276 76.3541C39.6797 76.3102 39.7728 74.4416 40.0742 73.762C40.2989 73.1939 40.4731 72.6071 40.5949 72.0084C40.6661 73.4935 40.5236 74.7484 40.5949 75.5595C40.699 76.6062 39.4057 78.968 39.4057 78.968Z" fill="black"/>
<path d="M46.0859 81.2477C45.5379 81.034 42.8965 80.76 40.3867 79.516H40.3593C40.3593 79.516 41.6032 76.5623 41.6032 75.9869C41.6032 75.4115 41.1265 73.351 41.8005 72.6715C42.4745 71.992 44.9953 72.8962 45.8338 74.0634C46.6722 75.2307 46.0859 81.2477 46.0859 81.2477Z" fill="#FFC727"/>
<path opacity="0.1" d="M46.0859 81.2477C45.5379 81.034 42.8965 80.76 40.3867 79.516H40.3593C40.3593 79.516 41.6032 76.5623 41.6032 75.9869C41.6032 75.4115 41.1265 73.351 41.8005 72.6715C42.4745 71.992 44.9953 72.8962 45.8338 74.0634C46.6722 75.2307 46.0859 81.2477 46.0859 81.2477Z" fill="black"/>
<path opacity="0.1" d="M46.0859 81.2477C45.5379 81.034 42.8965 80.76 40.3867 79.5106H40.3593C40.3593 79.5106 41.6032 76.5568 41.6032 75.9814C41.6032 75.406 41.1265 73.3456 41.8005 72.666C41.5594 73.088 42.2882 75.8773 42.3485 76.4418C42.4088 77.0062 42.069 78.3707 42.8307 79.0722C43.5925 79.7736 44.7433 80.075 45.2529 79.6202C45.7625 79.1653 46.2448 77.2199 46.3051 76.9898C46.3105 79.0119 46.0859 81.2477 46.0859 81.2477Z" fill="black"/>
<path d="M53.5387 84.3987C52.6589 84.3843 51.7814 84.3037 50.9138 84.1576C49.7027 83.9 47.9491 82.5136 46.875 81.7409C46.875 81.7409 47.5819 78.4529 47.5326 77.4939C47.4833 76.5349 47.8943 75.4006 48.8368 75.0608C49.7794 74.721 51.9769 75.8664 52.5139 76.3815C53.051 76.8966 53.166 78.8256 53.5058 79.8996C53.8456 80.9737 53.5387 84.3987 53.5387 84.3987Z" fill="#FFC727"/>
<path opacity="0.1" d="M53.5387 84.3987C52.6589 84.3843 51.7814 84.3037 50.9138 84.1576C49.7027 83.9 47.9491 82.5136 46.875 81.7409C46.875 81.7409 47.5819 78.4529 47.5326 77.4939C47.4833 76.5349 47.8943 75.4006 48.8368 75.0608C49.7794 74.721 51.9769 75.8664 52.5139 76.3815C53.051 76.8966 53.166 78.8256 53.5058 79.8996C53.8456 80.9737 53.5387 84.3987 53.5387 84.3987Z" fill="black"/>
<path opacity="0.1" d="M53.5387 84.3932C52.6591 84.38 51.7817 84.3012 50.9138 84.1576C49.7027 83.9 47.9546 82.5136 46.875 81.7409C46.875 81.7409 47.5819 78.4529 47.5326 77.4939C47.4832 76.8151 47.6775 76.1408 48.0806 75.5924C47.8066 76.1404 48.5848 79.3626 49.0067 80.3983C49.4287 81.434 49.615 82.0094 50.5795 82.5246C50.9418 82.7425 51.3717 82.8194 51.7872 82.7405C52.2026 82.6617 52.5744 82.4327 52.8318 82.0971C53.1455 81.5618 53.3956 80.9917 53.577 80.3983C53.6679 81.7289 53.655 83.0646 53.5387 84.3932Z" fill="black"/>
<path d="M62.8109 83.226C62.219 83.3685 61.8354 83.6534 60.6189 84.0042C59.4023 84.3549 56.7281 84.47 54.4813 84.4261C54.4473 83.3685 54.607 82.3136 54.9525 81.3135C55.5553 79.7188 55.8677 78.3762 57.2432 77.9707C58.6187 77.5652 61.1943 78.5187 61.8025 79.379C62.4108 80.2394 62.7615 82.9136 62.8109 83.226Z" fill="#FFC727"/>
<path opacity="0.1" d="M62.8109 83.226C62.219 83.3685 61.8354 83.6534 60.6189 84.0042C59.4023 84.3549 56.7281 84.47 54.4813 84.4261C54.4473 83.3685 54.607 82.3136 54.9525 81.3135C55.5553 79.7188 55.8677 78.3762 57.2432 77.9707C58.6187 77.5652 61.1943 78.5187 61.8025 79.379C62.4108 80.2394 62.7615 82.9136 62.8109 83.226Z" fill="black"/>
<path opacity="0.1" d="M62.8108 83.2205C62.219 83.3685 61.8409 83.648 60.6188 84.0041C59.3968 84.3604 56.728 84.47 54.4812 84.4261C54.4469 83.3685 54.6067 82.3135 54.9525 81.3135C55.3635 80.2175 55.643 79.2475 56.2239 78.6118C55.7362 79.3242 55.791 81.9492 56.4321 82.5629C57.0733 83.1767 58.394 82.7164 59.4406 83.0068C60.3494 83.1894 61.2937 83.0252 62.0875 82.5465C62.4108 82.3218 62.4327 81.2861 62.4382 81.16C62.6464 82.119 62.7834 83.0506 62.8108 83.2205Z" fill="black"/>
<path d="M64.8713 83.1712C64.4885 83.1406 64.1044 83.1296 63.7205 83.1383C63.7205 83.1383 63.2985 82.2889 63.7643 80.6066C64.2301 78.9242 64.4932 79.0448 66.2796 77.8337C68.0661 76.6226 67.5072 73.5154 69.6827 74.447C71.8583 75.3786 74.6147 77.8885 74.6147 77.8885C73.9133 78.9132 67.3976 83.3466 64.8713 83.1712Z" fill="#FFC727"/>
<path opacity="0.1" d="M64.8713 83.1712C64.4885 83.1406 64.1044 83.1296 63.7205 83.1383C63.7205 83.1383 63.2985 82.2889 63.7643 80.6066C64.2301 78.9242 64.4932 79.0448 66.2796 77.8337C68.0661 76.6226 67.5072 73.5154 69.6827 74.447C71.8583 75.3786 74.6147 77.8885 74.6147 77.8885C73.9133 78.9132 67.3976 83.3466 64.8713 83.1712Z" fill="black"/>
<path opacity="0.1" d="M64.8713 83.1712C64.3945 83.1383 64.0274 83.1274 63.7205 83.1328C63.7205 83.1328 63.293 82.2834 63.7588 80.6011C64.2246 78.9187 64.4877 79.0393 66.2796 77.8282C66.3773 77.7591 66.4706 77.684 66.5591 77.6035C66.044 78.2173 64.537 80.8148 65.211 81.4395C65.8851 82.0642 66.7948 80.3983 68.3894 80.2613C69.9841 80.1243 72.4994 79.1927 73.1132 78.5187C73.727 77.8446 72.9433 76.513 72.9433 76.513C73.9023 77.2583 74.5873 77.883 74.5873 77.883C73.9133 78.9132 67.3976 83.3466 64.8713 83.1712Z" fill="black"/>
<path d="M17.6501 2.58231C16.6418 3.49199 10.6631 9.04871 11.0741 11.0434C11.4851 13.0382 9.26573 19.6909 9.07393 22.6994C8.88213 25.7079 12.4113 32.1579 13.3045 33.2813C14.1977 34.4047 15.4033 42.8767 15.8856 44.2741C16.5457 46.0302 17.4397 47.6891 18.5434 49.2061C19.6394 50.6419 23.6398 54.6313 24.4673 55.8205C25.2947 57.0097 28.2539 61.4594 29.0211 62.1883C29.7883 62.9171 36.4959 68.841 37.7563 69.3835C39.0167 69.926 42.5622 73.2195 43.9651 74.2772C45.368 75.3348 50.4315 78.3597 53.2263 79.3133C56.0211 80.2668 63.1999 80.2394 64.9919 80.3654C66.7838 80.4915 72.5543 80.4422 74.5819 77.8611C76.6095 75.28 76.1546 71.9262 76.9547 70.6932C77.7548 69.4602 80.2427 63.7446 80.1276 58.9715C80.0125 54.1984 77.141 44.9263 75.7436 42.1041C74.3462 39.2819 70.8993 35.8843 69.9677 33.9389C69.0361 31.9935 67.8908 27.8177 65.37 24.9955C62.8492 22.1733 58.3391 17.8715 57.9829 17.3728C57.6267 16.8741 52.6125 11.0215 51.8453 10.7968C51.0781 10.5721 45.9488 7.66227 43.9706 6.16623C41.9923 4.67019 39.0386 2.64259 37.2247 2.20967C35.4108 1.77675 34.0134 -0.207006 30.4843 0.0176738C26.9552 0.242354 19.2119 1.16299 17.6501 2.58231Z" fill="#FFC727"/>
<path opacity="0.2" d="M17.6501 2.58231C16.6418 3.49199 10.6631 9.04871 11.0741 11.0434C11.4851 13.0382 9.26573 19.6909 9.07393 22.6994C8.88213 25.7079 12.4113 32.1579 13.3045 33.2813C14.1977 34.4047 15.4033 42.8767 15.8856 44.2741C16.5457 46.0302 17.4397 47.6891 18.5434 49.2061C19.6394 50.6419 23.6398 54.6313 24.4673 55.8205C25.2947 57.0097 28.2539 61.4594 29.0211 62.1883C29.7883 62.9171 36.4959 68.841 37.7563 69.3835C39.0167 69.926 42.5622 73.2195 43.9651 74.2772C45.368 75.3348 50.4315 78.3597 53.2263 79.3133C56.0211 80.2668 63.1999 80.2394 64.9919 80.3654C66.7838 80.4915 72.5543 80.4422 74.5819 77.8611C76.6095 75.28 76.1546 71.9262 76.9547 70.6932C77.7548 69.4602 80.2427 63.7446 80.1276 58.9715C80.0125 54.1984 77.141 44.9263 75.7436 42.1041C74.3462 39.2819 70.8993 35.8843 69.9677 33.9389C69.0361 31.9935 67.8908 27.8177 65.37 24.9955C62.8492 22.1733 58.3391 17.8715 57.9829 17.3728C57.6267 16.8741 52.6125 11.0215 51.8453 10.7968C51.0781 10.5721 45.9488 7.66227 43.9706 6.16623C41.9923 4.67019 39.0386 2.64259 37.2247 2.20967C35.4108 1.77675 34.0134 -0.207006 30.4843 0.0176738C26.9552 0.242354 19.2119 1.16299 17.6501 2.58231Z" fill="white"/>
<path opacity="0.3" d="M55.7745 46.9868C57.5555 44.6852 53.3742 41.1725 51.5658 39.0024C49.7574 36.8323 49.7739 34.1526 47.7298 32.0373C45.6858 29.922 44.4418 29.2973 41.4991 29.7193C41.4991 29.7193 40.8086 29.1384 39.055 29.2973C37.3014 29.4562 38.507 30.7879 38.4303 33.5114C38.3535 36.235 38.9783 36.9693 39.877 37.9886C40.7757 39.0079 44.1075 43.1672 46.0694 45.1784C48.0312 47.1895 48.5847 47.743 51.6261 47.606C53.977 47.5074 53.9935 49.2829 55.7745 46.9868ZM55.7745 46.9868C57.5555 44.6852 53.3742 41.1725 51.5658 39.0024C49.7574 36.8323 49.7739 34.1526 47.7298 32.0373C45.6858 29.922 44.4418 29.2973 41.4991 29.7193C41.4991 29.7193 40.8086 29.1384 39.055 29.2973C37.3014 29.4562 38.507 30.7879 38.4303 33.5114C38.3535 36.235 38.9783 36.9693 39.877 37.9886C40.7757 39.0079 44.1075 43.1672 46.0694 45.1784C48.0312 47.1895 48.5847 47.743 51.6261 47.606C53.977 47.5074 53.9935 49.2829 55.7745 46.9868ZM55.7745 46.9868C57.5555 44.6852 53.3742 41.1725 51.5658 39.0024C49.7574 36.8323 49.7739 34.1526 47.7298 32.0373C45.6858 29.922 44.4418 29.2973 41.4991 29.7193C41.4991 29.7193 40.8086 29.1384 39.055 29.2973C37.3014 29.4562 38.507 30.7879 38.4303 33.5114C38.3535 36.235 38.9783 36.9693 39.877 37.9886C40.7757 39.0079 44.1075 43.1672 46.0694 45.1784C48.0312 47.1895 48.5847 47.743 51.6261 47.606C53.977 47.5074 53.9935 49.2829 55.7745 46.9868ZM55.7745 46.9868C57.5555 44.6852 53.3742 41.1725 51.5658 39.0024C49.7574 36.8323 49.7739 34.1526 47.7298 32.0373C45.6858 29.922 44.4418 29.2973 41.4991 29.7193C41.4991 29.7193 40.8086 29.1384 39.055 29.2973C37.3014 29.4562 38.507 30.7879 38.4303 33.5114C38.3535 36.235 38.9783 36.9693 39.877 37.9886C40.7757 39.0079 44.1075 43.1672 46.0694 45.1784C48.0312 47.1895 48.5847 47.743 51.6261 47.606C53.977 47.5074 53.9935 49.2829 55.7745 46.9868ZM55.7745 46.9868C57.5555 44.6852 53.3742 41.1725 51.5658 39.0024C49.7574 36.8323 49.7739 34.1526 47.7298 32.0373C45.6858 29.922 44.4418 29.2973 41.4991 29.7193C41.4991 29.7193 40.8086 29.1384 39.055 29.2973C37.3014 29.4562 38.507 30.7879 38.4303 33.5114C38.3535 36.235 38.9783 36.9693 39.877 37.9886C40.7757 39.0079 44.1075 43.1672 46.0694 45.1784C48.0312 47.1895 48.5847 47.743 51.6261 47.606C53.977 47.5074 53.9935 49.2829 55.7745 46.9868ZM55.7745 46.9868C57.5555 44.6852 53.3742 41.1725 51.5658 39.0024C49.7574 36.8323 49.7739 34.1526 47.7298 32.0373C45.6858 29.922 44.4418 29.2973 41.4991 29.7193C41.4991 29.7193 40.8086 29.1384 39.055 29.2973C37.3014 29.4562 38.507 30.7879 38.4303 33.5114C38.3535 36.235 38.9783 36.9693 39.877 37.9886C40.7757 39.0079 44.1075 43.1672 46.0694 45.1784C48.0312 47.1895 48.5847 47.743 51.6261 47.606C53.977 47.5074 53.9935 49.2829 55.7745 46.9868ZM55.7745 46.9868C57.5555 44.6852 53.3742 41.1725 51.5658 39.0024C49.7574 36.8323 49.7739 34.1526 47.7298 32.0373C45.6858 29.922 44.4418 29.2973 41.4991 29.7193C41.4991 29.7193 40.8086 29.1384 39.055 29.2973C37.3014 29.4562 38.507 30.7879 38.4303 33.5114C38.3535 36.235 38.9783 36.9693 39.877 37.9886C40.7757 39.0079 44.1075 43.1672 46.0694 45.1784C48.0312 47.1895 48.5847 47.743 51.6261 47.606C53.977 47.5074 53.9935 49.2829 55.7745 46.9868ZM55.7745 46.9868C57.5555 44.6852 53.3742 41.1725 51.5658 39.0024C49.7574 36.8323 49.7739 34.1526 47.7298 32.0373C45.6858 29.922 44.4418 29.2973 41.4991 29.7193C41.4991 29.7193 40.8086 29.1384 39.055 29.2973C37.3014 29.4562 38.507 30.7879 38.4303 33.5114C38.3535 36.235 38.9783 36.9693 39.877 37.9886C40.7757 39.0079 44.1075 43.1672 46.0694 45.1784C48.0312 47.1895 48.5847 47.743 51.6261 47.606C53.977 47.5074 53.9935 49.2829 55.7745 46.9868ZM55.7745 46.9868C57.5555 44.6852 53.3742 41.1725 51.5658 39.0024C49.7574 36.8323 49.7739 34.1526 47.7298 32.0373C45.6858 29.922 44.4418 29.2973 41.4991 29.7193C41.4991 29.7193 40.8086 29.1384 39.055 29.2973C37.3014 29.4562 38.507 30.7879 38.4303 33.5114C38.3535 36.235 38.9783 36.9693 39.877 37.9886C40.7757 39.0079 44.1075 43.1672 46.0694 45.1784C48.0312 47.1895 48.5847 47.743 51.6261 47.606C53.977 47.5074 53.9935 49.2829 55.7745 46.9868ZM55.7745 46.9868C57.5555 44.6852 53.3742 41.1725 51.5658 39.0024C49.7574 36.8323 49.7739 34.1526 47.7298 32.0373C45.6858 29.922 44.4418 29.2973 41.4991 29.7193C41.4991 29.7193 40.8086 29.1384 39.055 29.2973C37.3014 29.4562 38.507 30.7879 38.4303 33.5114C38.3535 36.235 38.9783 36.9693 39.877 37.9886C40.7757 39.0079 44.1075 43.1672 46.0694 45.1784C48.0312 47.1895 48.5847 47.743 51.6261 47.606C53.977 47.5074 53.9935 49.2829 55.7745 46.9868ZM55.7745 46.9868C57.5555 44.6852 53.3742 41.1725 51.5658 39.0024C49.7574 36.8323 49.7739 34.1526 47.7298 32.0373C45.6858 29.922 44.4418 29.2973 41.4991 29.7193C41.4991 29.7193 40.8086 29.1384 39.055 29.2973C37.3014 29.4562 38.507 30.7879 38.4303 33.5114C38.3535 36.235 38.9783 36.9693 39.877 37.9886C40.7757 39.0079 44.1075 43.1672 46.0694 45.1784C48.0312 47.1895 48.5847 47.743 51.6261 47.606C53.977 47.5074 53.9935 49.2829 55.7745 46.9868ZM55.7745 46.9868C57.5555 44.6852 53.3742 41.1725 51.5658 39.0024C49.7574 36.8323 49.7739 34.1526 47.7298 32.0373C45.6858 29.922 44.4418 29.2973 41.4991 29.7193C41.4991 29.7193 40.8086 29.1384 39.055 29.2973C37.3014 29.4562 38.507 30.7879 38.4303 33.5114C38.3535 36.235 38.9783 36.9693 39.877 37.9886C40.7757 39.0079 44.1075 43.1672 46.0694 45.1784C48.0312 47.1895 48.5847 47.743 51.6261 47.606C53.977 47.5074 53.9935 49.2829 55.7745 46.9868ZM73.2063 75.2471C75.1079 72.8195 74.6914 69.6685 75.4367 68.5067C76.2779 66.985 76.9434 65.3727 77.4204 63.7008L67.5564 54.2039C71.1888 56.8216 74.565 59.7776 77.6396 63.0322C78.1672 61.2368 78.4312 59.3742 78.4233 57.5029C78.3466 54.5437 77.1465 49.7377 75.9573 46.0551L66.044 42.8165C69.3843 43.1213 72.6519 43.9729 75.7162 45.3373C75.3143 44.0812 74.8348 42.8513 74.2804 41.6547C72.9543 38.9969 69.7375 35.7856 68.8716 33.9498L55.5059 34.9088C59.757 33.2255 64.4221 32.887 68.8716 33.9389C67.9948 32.1031 66.9098 28.1849 64.537 25.5326C62.1641 22.8802 57.961 18.8195 57.5993 18.3647C57.2376 17.9099 52.5522 12.3915 51.8343 12.2052C51.5036 12.0845 51.183 11.9379 50.8753 11.7668C51.0726 14.1177 51.6425 22.0527 50.415 25.6805L50.7876 11.723C48.5869 10.5676 46.4619 9.2736 44.4254 7.8486C42.5677 6.44024 39.8057 4.56059 38.085 4.13315C37.1644 3.91395 36.3643 3.27828 35.3121 2.75768C36.7589 5.70592 40.0633 12.7477 41.2634 17.6085L35.1642 2.70288C34.1016 2.19461 32.925 1.97176 31.7501 2.05624C28.4347 2.25352 21.1573 3.15223 19.6941 4.47839C19.5023 4.64827 19.1461 5.02639 18.631 5.47027C20.3079 6.86219 23.0808 9.65152 26.714 15.0219L18.2913 5.81551C16.3185 7.73351 13.2442 11.016 13.5346 12.4189C13.7045 13.2464 13.3921 14.9233 12.9866 16.8029C15.2992 18.1948 20.56 21.439 23.6123 23.9653L12.9702 16.8741C12.4222 19.2141 11.7701 21.8336 11.6659 23.3954C11.4851 26.234 14.8005 32.2894 15.6389 33.347C16.3842 34.2841 17.3597 40.6464 17.8857 42.9973C20.2476 42.6302 25.5084 42.0383 30.0952 43.1014L17.9351 43.2056C17.9686 43.3671 18.0125 43.5264 18.0666 43.6823C18.6865 45.3385 19.527 46.9035 20.5654 48.3348C21.5793 49.6829 25.3605 53.4312 26.1331 54.5491C26.9058 55.6671 29.6896 59.8483 30.413 60.5388C31.1364 61.2293 37.4438 66.7915 38.633 67.3011C39.466 67.6573 41.373 69.3013 42.8964 70.5891L43.3349 58.5331C43.4006 58.7852 44.4308 62.9171 43.1321 70.8028C43.6801 71.2577 44.1294 71.6522 44.4692 71.8988C45.7844 72.9181 50.5465 75.7348 53.1715 76.6336C55.7964 77.5323 62.5423 77.5049 64.2356 77.6199C64.5041 77.6199 64.8822 77.6583 65.3316 77.6583L55.3251 55.7383C55.5717 56.1438 63.1451 68.6602 65.5617 77.6583C67.1206 77.6646 68.6735 77.4674 70.1814 77.072L62.6793 64.9338C63.0081 65.3612 67.9236 71.866 70.3129 76.9898C71.4293 76.7098 72.4368 76.1031 73.2063 75.2471ZM73.0913 47.0909L64.8274 44.3509C65.8083 44.6084 71.3212 46.0332 73.0913 47.0909ZM60.6791 26.2066C61.7751 27.3464 52.6235 28.7658 52.6235 28.7658C56.2951 25.7189 59.5666 25.0558 60.6571 26.1901L60.6791 26.2066ZM47.4558 21.8829L46.4804 13.9424C47.2377 16.518 47.5672 19.2005 47.4558 21.8829ZM42.7211 13.2245C45.7625 14.3753 45.3844 25.1983 45.3844 25.1983C42.5677 18.8031 39.6632 12.0189 42.7211 13.1971V13.2245ZM40.2386 22.0582L32.2159 10.079C32.2159 10.079 35.2792 11.6627 40.2386 22.0308V22.0582ZM33.7449 24.3324L21.8149 11.5476C21.8149 11.5476 30.5226 19.795 33.7449 24.305V24.3324ZM22.6753 17.1536C26.5715 17.2742 31.7885 26.7381 31.7885 26.7381C31.7885 26.7381 18.8009 17.0386 22.6753 17.1536ZM20.5654 25.5545C20.2366 23.779 31.383 29.8617 31.7118 30.0481C25.1577 29.4727 20.9271 27.3629 20.5874 25.5545H20.5654ZM23.3383 40.06C23.3383 40.06 31.1309 39.2052 35.7341 41.156L23.3383 40.06ZM35.208 54.2423C33.5092 51.3433 41.7511 45.825 41.7511 45.825C39.466 51.3598 36.9233 57.1467 35.2299 54.2423H35.208ZM43.4993 49.5678C43.4445 49.8911 42.469 55.0478 37.2411 61.2621L43.4993 49.5678ZM49.741 49.0472C47.5764 47.7814 44.6939 45.8798 43.165 43.6878C41.6361 41.4958 39.877 40.8327 38.781 38.8599C37.685 36.8871 37.4603 36.8762 36.9835 35.1609C36.5068 33.4457 35.7834 32.9415 36.3862 32.0428C36.989 31.1441 36.0574 29.3412 37.2301 28.7548C38.4029 28.1684 38.2878 26.8861 39.866 27.7355C41.6635 28.7055 46.4968 28.6945 48.1408 30.5358C49.7848 32.3771 49.7848 35.1938 51.6864 37.2598C53.5879 39.3257 56.443 42.2794 57.2376 43.759C57.8821 45.1209 57.9667 46.6811 57.4733 48.1047C57.128 49.2007 55.1936 48.976 54.2455 49.2007C53.2975 49.4254 51.9001 50.3241 49.73 49.0472H49.741ZM56.5143 69.2629C54.3223 68.9013 53.5934 59.6784 53.5934 59.6784C55.9498 63.3665 58.6843 69.6191 56.5033 69.2629H56.5143ZM50.7329 62.824L49.2039 52.9599C50.6179 56.0427 51.1472 59.4578 50.7329 62.824ZM62.5642 46.8278C62.5642 46.8278 72.4282 50.0062 73.4529 54.0066C74.4777 58.007 62.5642 46.8278 62.5642 46.8278ZM71.4034 64.72L60.5256 52.949C60.5256 52.949 65.6165 56.3192 71.4034 64.72ZM61.8134 61.4594C64.2984 63.6069 66.5821 65.9768 68.636 68.5396L61.8134 61.4594ZM51.5658 38.9914C49.7574 36.7994 49.7739 34.1416 47.7298 32.0264C45.6858 29.9111 44.4418 29.2864 41.4991 29.7083C41.4991 29.7083 40.8086 29.1274 39.055 29.2864C37.3014 29.4453 38.507 30.7769 38.4303 33.5005C38.3535 36.224 38.9783 36.9584 39.877 37.9776C40.7757 38.9969 44.1075 43.1562 46.0694 45.1674C48.0312 47.1786 48.5847 47.732 51.6261 47.595C53.9989 47.4964 54.0154 49.2719 55.7964 46.9758C57.5774 44.6797 53.3633 41.1725 51.5658 39.0024V38.9914ZM55.7745 46.9758C57.5555 44.6742 53.3742 41.1615 51.5658 38.9914C49.7574 36.8214 49.7739 34.1416 47.7298 32.0264C45.6858 29.9111 44.4418 29.2864 41.4991 29.7083C41.4991 29.7083 40.8086 29.1274 39.055 29.2864C37.3014 29.4453 38.507 30.7769 38.4303 33.5005C38.3535 36.224 38.9783 36.9584 39.877 37.9776C40.7757 38.9969 44.1075 43.1562 46.0694 45.1674C48.0312 47.1786 48.5847 47.732 51.6261 47.595C53.977 47.5074 53.9935 49.2829 55.7745 46.9868V46.9758ZM55.7745 46.9758C57.5555 44.6742 53.3742 41.1615 51.5658 38.9914C49.7574 36.8214 49.7739 34.1416 47.7298 32.0264C45.6858 29.9111 44.4418 29.2864 41.4991 29.7083C41.4991 29.7083 40.8086 29.1274 39.055 29.2864C37.3014 29.4453 38.507 30.7769 38.4303 33.5005C38.3535 36.224 38.9783 36.9584 39.877 37.9776C40.7757 38.9969 44.1075 43.1562 46.0694 45.1674C48.0312 47.1786 48.5847 47.732 51.6261 47.595C53.977 47.5074 53.9935 49.2829 55.7745 46.9868V46.9758ZM55.7745 46.9758C57.5555 44.6742 53.3742 41.1615 51.5658 38.9914C49.7574 36.8214 49.7739 34.1416 47.7298 32.0264C45.6858 29.9111 44.4418 29.2864 41.4991 29.7083C41.4991 29.7083 40.8086 29.1274 39.055 29.2864C37.3014 29.4453 38.507 30.7769 38.4303 33.5005C38.3535 36.224 38.9783 36.9584 39.877 37.9776C40.7757 38.9969 44.1075 43.1562 46.0694 45.1674C48.0312 47.1786 48.5847 47.732 51.6261 47.595C53.977 47.5074 53.9935 49.2829 55.7745 46.9868V46.9758ZM55.7745 46.9758C57.5555 44.6742 53.3742 41.1615 51.5658 38.9914C49.7574 36.8214 49.7739 34.1416 47.7298 32.0264C45.6858 29.9111 44.4418 29.2864 41.4991 29.7083C41.4991 29.7083 40.8086 29.1274 39.055 29.2864C37.3014 29.4453 38.507 30.7769 38.4303 33.5005C38.3535 36.224 38.9783 36.9584 39.877 37.9776C40.7757 38.9969 44.1075 43.1562 46.0694 45.1674C48.0312 47.1786 48.5847 47.732 51.6261 47.595C53.977 47.5074 53.9935 49.2829 55.7745 46.9868V46.9758ZM55.7745 46.9758C57.5555 44.6742 53.3742 41.1615 51.5658 38.9914C49.7574 36.8214 49.7739 34.1416 47.7298 32.0264C45.6858 29.9111 44.4418 29.2864 41.4991 29.7083C41.4991 29.7083 40.8086 29.1274 39.055 29.2864C37.3014 29.4453 38.507 30.7769 38.4303 33.5005C38.3535 36.224 38.9783 36.9584 39.877 37.9776C40.7757 38.9969 44.1075 43.1562 46.0694 45.1674C48.0312 47.1786 48.5847 47.732 51.6261 47.595C53.977 47.5074 53.9935 49.2829 55.7745 46.9868V46.9758ZM55.7745 46.9758C57.5555 44.6742 53.3742 41.1615 51.5658 38.9914C49.7574 36.8214 49.7739 34.1416 47.7298 32.0264C45.6858 29.9111 44.4418 29.2864 41.4991 29.7083C41.4991 29.7083 40.8086 29.1274 39.055 29.2864C37.3014 29.4453 38.507 30.7769 38.4303 33.5005C38.3535 36.224 38.9783 36.9584 39.877 37.9776C40.7757 38.9969 44.1075 43.1562 46.0694 45.1674C48.0312 47.1786 48.5847 47.732 51.6261 47.595C53.977 47.5074 53.9935 49.2829 55.7745 46.9868V46.9758ZM55.7745 46.9758C57.5555 44.6742 53.3742 41.1615 51.5658 38.9914C49.7574 36.8214 49.7739 34.1416 47.7298 32.0264C45.6858 29.9111 44.4418 29.2864 41.4991 29.7083C41.4991 29.7083 40.8086 29.1274 39.055 29.2864C37.3014 29.4453 38.507 30.7769 38.4303 33.5005C38.3535 36.224 38.9783 36.9584 39.877 37.9776C40.7757 38.9969 44.1075 43.1562 46.0694 45.1674C48.0312 47.1786 48.5847 47.732 51.6261 47.595C53.977 47.5074 53.9935 49.2829 55.7745 46.9868V46.9758ZM55.7745 46.9758C57.5555 44.6742 53.3742 41.1615 51.5658 38.9914C49.7574 36.8214 49.7739 34.1416 47.7298 32.0264C45.6858 29.9111 44.4418 29.2864 41.4991 29.7083C41.4991 29.7083 40.8086 29.1274 39.055 29.2864C37.3014 29.4453 38.507 30.7769 38.4303 33.5005C38.3535 36.224 38.9783 36.9584 39.877 37.9776C40.7757 38.9969 44.1075 43.1562 46.0694 45.1674C48.0312 47.1786 48.5847 47.732 51.6261 47.595C53.977 47.5074 53.9935 49.2829 55.7745 46.9868V46.9758ZM55.7745 46.9758C57.5555 44.6742 53.3742 41.1615 51.5658 38.9914C49.7574 36.8214 49.7739 34.1416 47.7298 32.0264C45.6858 29.9111 44.4418 29.2864 41.4991 29.7083C41.4991 29.7083 40.8086 29.1274 39.055 29.2864C37.3014 29.4453 38.507 30.7769 38.4303 33.5005C38.3535 36.224 38.9783 36.9584 39.877 37.9776C40.7757 38.9969 44.1075 43.1562 46.0694 45.1674C48.0312 47.1786 48.5847 47.732 51.6261 47.595C53.977 47.5074 53.9935 49.2829 55.7745 46.9868V46.9758ZM55.7745 46.9758C57.5555 44.6742 53.3742 41.1615 51.5658 38.9914C49.7574 36.8214 49.7739 34.1416 47.7298 32.0264C45.6858 29.9111 44.4418 29.2864 41.4991 29.7083C41.4991 29.7083 40.8086 29.1274 39.055 29.2864C37.3014 29.4453 38.507 30.7769 38.4303 33.5005C38.3535 36.224 38.9783 36.9584 39.877 37.9776C40.7757 38.9969 44.1075 43.1562 46.0694 45.1674C48.0312 47.1786 48.5847 47.732 51.6261 47.595C53.977 47.5074 53.9935 49.2829 55.7745 46.9868V46.9758Z" fill="white"/>
</svg>
